<svg width="146" height="108" viewBox="0 0 146 108" fill="none" xmlns="http://www.w3.org/2000/svg">
<path d="M94.1404 107.018C94.1039 107.018 94.0674 107.018 94.0309 106.982C93.9579 106.945 93.9214 106.836 93.9579 106.763L104.327 82.8834L9.94263 79.2686C9.86961 79.2686 9.79658 79.1956 9.76007 79.1226L0.0112305 8.54392C0.0112305 8.50741 0.0112438 8.43439 0.0477563 8.39787C0.0842688 8.36136 0.120768 8.32485 0.193793 8.32485L144.966 0C145.002 0 145.075 -5.57681e-07 145.112 0.0365119C145.148 0.0730244 145.185 0.109537 145.148 0.182562L140 83.7962C140 83.9057 139.927 83.9787 139.818 83.9787L114.514 83.6136L94.2865 106.945C94.25 106.982 94.2135 107.018 94.1404 107.018ZM10.1252 78.9035L104.62 82.5182C104.693 82.5182 104.729 82.5548 104.766 82.5913C104.802 82.6278 104.802 82.7008 104.766 82.7738L94.7612 105.813L114.259 83.3215C114.295 83.285 114.332 83.2485 114.405 83.2485L139.598 83.6136L144.71 0.365125L0.376355 8.68997L10.1252 78.9035Z" fill="#231F20"/>
<path d="M33.7854 68.2419L32.8726 53.1987L14.3973 54.3306L13.521 45.6407L30.6819 14.7876L43.7168 15.6274L44.5931 44.5453L50.0335 44.7644L48.9746 53.1622L42.9501 53.2718L43.4978 65.759L33.7854 68.2419ZM35.0269 44.7278L34.114 24.3904C32.6901 27.567 24.1826 44.3262 24.1826 44.3262V44.4723L35.0269 44.7278Z" fill="#FFAE00"/>
<path d="M86.327 40.0177C85.5238 55.2434 82.1281 68.6435 69.6408 65.7225C59.7094 63.3857 54.7437 55.426 53.7214 41.5147C52.5895 25.8509 58.7966 12.962 69.9694 14.7876C81.6534 16.6497 87.2033 23.368 86.327 40.0177ZM63.5432 40.3098C63.4702 51.5922 65.9166 56.996 69.8964 56.996C73.8763 56.996 75.0812 51.3366 76.0305 40.1638C76.9068 30.0498 74.9351 23.6236 70.8092 23.6236C67.0484 23.5871 63.5067 28.8449 63.5432 40.3098Z" fill="#FFAE00"/>
<path d="M109.549 64.8827L110.024 52.6875L94.1043 53.1256L90.0879 45.6041L104.547 17.1973L120.32 14.678L119.261 43.5594L126.089 42.9021L127.732 53.2352L119.261 53.1256L120.138 67.3655L109.549 64.8827ZM109.549 44.4722C109.549 44.4722 110.717 25.6317 110.937 22.4551L99.6907 44.3261V44.4722H109.549Z" fill="#FFAE00"/>
<path d="M36.0857 69.5564L35.1729 54.4767L16.6976 55.6086L15.8213 46.6995L15.8578 46.663L33.0917 15.7004L46.4188 16.5402L47.2951 45.4581L52.772 45.6772L51.6766 54.4402L45.6886 54.5497L46.2362 67.0005L36.0857 69.5564ZM35.5015 54.0751L36.4144 69.0817L45.8346 66.6354L45.2869 54.1116L51.3115 54.002L52.3338 45.9693L46.93 45.7502L46.0537 16.8323L33.2743 16.0291L16.1864 46.7361L17.0262 55.207L35.5015 54.0751ZM37.6558 45.9693L26.4464 45.7137V45.3486L26.483 45.3121C26.556 45.1295 34.9904 28.5163 36.4144 25.3762L36.7795 25.4493L37.6558 45.9693ZM26.8481 45.3486L37.2907 45.5677L36.4144 26.1795C34.4427 30.3785 27.5418 43.9976 26.8481 45.3486Z" fill="black"/>
<path d="M75.3371 67.3656C74.3147 67.3656 73.1828 67.2195 72.0144 66.9639C62.083 64.6271 57.0078 56.8865 55.9489 42.6101C55.2187 32.7517 57.4094 24.0617 61.7909 19.3516C64.1642 16.7958 67.0122 15.5178 70.2983 15.5178C70.9921 15.5178 71.6858 15.5908 72.4161 15.7004C78.6232 16.7227 82.7856 18.9865 85.4145 22.8933C88.1895 26.9462 89.3214 32.9343 88.8832 41.1496C88.3355 52.3589 86.2908 67.3656 75.3371 67.3656ZM70.3349 15.8464C67.1583 15.8464 64.3833 17.0879 62.083 19.5707C57.7746 24.2078 55.6203 32.8247 56.3141 42.5736C57.3364 56.6674 62.3751 64.2985 72.0875 66.5988C73.2194 66.8544 74.3147 67.0004 75.3371 67.0004C83.4063 67.0004 87.6053 58.7486 88.5546 41.0766C89.3944 25.3032 84.6843 18.0372 72.3796 16.029C71.6858 15.8829 70.9921 15.8464 70.3349 15.8464ZM72.3431 58.2374C71.1747 58.2374 70.1158 57.7993 69.2395 56.8865C66.9392 54.5862 65.7708 49.2188 65.8073 41.3687C65.7708 34.1392 67.1948 28.6988 69.7872 26.0699C70.8095 25.0111 72.0144 24.4634 73.2559 24.4634C74.3878 24.4634 75.3736 24.9015 76.1769 25.8143C78.4041 28.2607 79.2804 33.7376 78.6232 41.2226C77.7104 52.505 76.4325 58.2374 72.3431 58.2374ZM73.2924 24.865C72.1605 24.865 71.0286 25.3762 70.0793 26.362C67.5234 28.9179 66.1359 34.2487 66.2089 41.4052C66.1724 49.1458 67.3043 54.4401 69.5316 56.6674C70.3349 57.4707 71.2842 57.9088 72.3796 57.9088C76.2134 57.9088 77.3818 52.2859 78.3311 41.2591C78.9518 33.9931 78.112 28.4798 75.9578 26.143C75.191 25.2667 74.2782 24.865 73.2924 24.865Z" fill="black"/>
<path d="M122.766 68.6435L111.776 66.0876L112.251 53.929L96.4043 54.3671L92.3149 46.663L92.3515 46.5899L106.883 18.1102L122.985 15.5543V15.7734L121.927 44.4357L128.718 43.7785L130.397 54.4766L121.89 54.3671L122.766 68.6435ZM112.178 65.7955L122.401 68.1688L121.525 54.002L129.996 54.1115L128.426 44.1801L121.561 44.8373L122.62 15.956L107.139 18.4388L92.7531 46.663L96.6234 54.002L112.616 53.5638L112.178 65.7955ZM112.141 45.7136H101.918V45.3485L101.954 45.312L113.2 23.441L113.529 23.5506C113.31 26.7271 112.141 45.5676 112.141 45.5676V45.7136ZM102.319 45.3485H111.776C111.886 43.5959 112.798 28.9179 113.091 24.3903L102.319 45.3485Z" fill="black"/>
</svg>
