<svg width="1281" height="296" viewBox="0 0 1281 296" fill="none" xmlns="http://www.w3.org/2000/svg">
<path d="M711.251 294.322H569.971C569.731 294.322 569.571 294.162 569.571 293.922C569.571 293.682 569.731 293.522 569.971 293.522H711.251C711.491 293.522 711.651 293.682 711.651 293.922C711.651 294.162 711.411 294.322 711.251 294.322Z" fill="#231F20"/>
<path d="M565.891 294.402H560.131C559.891 294.402 559.731 294.242 559.731 294.002C559.731 293.762 559.891 293.602 560.131 293.602H565.891C566.131 293.602 566.291 293.762 566.291 294.002C566.291 294.242 566.131 294.402 565.891 294.402Z" fill="#231F20"/>
<path d="M729.011 294.402H715.331C715.091 294.402 714.931 294.242 714.931 294.002C714.931 293.762 715.091 293.602 715.331 293.602H729.011C729.251 293.602 729.411 293.762 729.411 294.002C729.411 294.242 729.251 294.402 729.011 294.402Z" fill="#231F20"/>
<path d="M555.571 294.322H540.531C540.291 294.322 540.131 294.162 540.131 293.922C540.131 293.682 540.291 293.522 540.531 293.522H555.571C555.811 293.522 555.971 293.682 555.971 293.922C555.891 294.162 555.731 294.322 555.571 294.322Z" fill="#231F20"/>
<path d="M599.971 61.6819L581.091 93.6819L597.331 110.242L607.171 94.6419L610.931 150.482L659.731 152.882L662.931 99.7619L667.731 107.842L681.891 98.2419L659.731 60.8819L640.611 55.3619L633.651 59.6819L624.531 55.3619L599.971 61.6819Z" fill="#3CC5D8"/>
<path d="M611.011 148.562L606.851 263.842L602.691 264.882L602.931 274.802L624.131 278.642L624.931 269.922L621.331 267.762L631.571 182.482L636.531 181.842L650.771 267.762L646.771 268.882L648.531 279.522L669.731 275.682L668.771 266.162H664.851L659.571 149.762L611.011 148.562Z" fill="#FFAE00"/>
<path d="M600.931 278.722L583.251 286.642L584.291 293.922H618.051L616.931 286.722L608.531 285.762L600.931 278.722Z" fill="#B3B3B3"/>
<path d="M647.651 286.722L646.451 293.922H683.091V288.242L667.171 280.322L660.531 285.522L647.651 286.722Z" fill="#B3B3B3"/>
<path d="M619.331 34.162C616.691 34.882 612.531 25.602 613.651 14.562C614.771 3.52201 627.331 2.802 629.411 2.802C631.491 2.802 645.331 4.56199 647.171 15.042C649.011 25.522 645.731 30.722 645.731 30.722C643.731 32.402 642.531 18.002 642.691 15.602C642.691 15.602 634.531 16.082 629.331 13.362C629.331 13.362 625.331 15.042 619.811 16.082C619.891 16.082 621.971 33.442 619.331 34.162Z" fill="#736357"/>
<path d="M649.091 270.322C648.931 270.322 648.691 270.162 648.691 270.002L633.731 180.962L629.651 180.482L620.131 270.002C620.131 270.082 620.051 270.242 619.971 270.322C619.891 270.402 619.731 270.402 619.651 270.402L605.251 266.642C605.091 266.562 604.931 266.402 604.931 266.242L608.691 146.802C608.691 146.722 608.771 146.562 608.851 146.482C608.931 146.402 609.011 146.402 609.171 146.402L657.971 150.162C658.211 150.162 658.371 150.322 658.371 150.562L663.411 267.922C663.411 268.162 663.251 268.322 663.091 268.322L649.091 270.322C649.171 270.322 649.091 270.322 649.091 270.322ZM629.331 179.602C629.411 179.602 629.411 179.602 629.331 179.602L634.131 180.162C634.291 180.162 634.451 180.322 634.451 180.482L649.331 269.442L662.451 267.442L657.411 150.802L609.411 147.122L605.731 265.842L619.411 269.362L628.931 180.002C628.931 179.922 629.011 179.762 629.091 179.762C629.171 179.682 629.251 179.602 629.331 179.602Z" fill="#231F20"/>
<path d="M622.051 279.922C621.971 279.922 621.971 279.922 622.051 279.922L601.731 276.322C601.571 276.322 601.411 276.162 601.411 275.922V266.162C601.411 265.922 601.571 265.762 601.811 265.762H605.411C605.651 265.762 605.811 265.922 605.811 266.162C605.811 266.402 605.651 266.562 605.411 266.562H602.211V275.522L621.731 278.962L622.451 271.442L619.651 270.242C619.411 270.162 619.331 269.922 619.411 269.682C619.491 269.442 619.731 269.362 619.971 269.442L623.011 270.802C623.171 270.882 623.251 271.042 623.251 271.202L622.451 279.442C622.451 279.522 622.371 279.682 622.291 279.762C622.211 279.922 622.131 279.922 622.051 279.922Z" fill="#231F20"/>
<path d="M647.491 282.242C647.411 282.242 647.331 282.242 647.251 282.162C647.171 282.082 647.091 282.002 647.091 281.922L645.491 271.282C645.491 271.122 645.571 270.882 645.731 270.882L648.931 269.682C649.171 269.602 649.331 269.682 649.411 269.922C649.491 270.162 649.411 270.322 649.171 270.402L646.291 271.522L647.811 281.442L667.731 277.202L666.611 268.322H663.011C662.771 268.322 662.611 268.162 662.611 267.922C662.611 267.682 662.771 267.522 663.011 267.522H667.011C667.251 267.522 667.411 267.682 667.411 267.842L668.611 277.442C668.611 277.682 668.531 277.842 668.291 277.922L647.651 282.322C647.571 282.162 647.491 282.242 647.491 282.242Z" fill="#231F20"/>
<path d="M620.051 294.322H586.131C585.891 294.322 585.731 294.162 585.731 294.002L584.931 287.842C584.931 287.682 585.011 287.522 585.171 287.442L604.371 279.202C604.531 279.122 604.611 279.122 604.771 279.202L612.371 284.322L619.571 284.242C619.811 284.242 619.971 284.402 619.971 284.642L620.371 293.842C620.371 293.922 620.371 293.922 620.371 294.002C620.451 294.162 620.291 294.322 620.051 294.322ZM586.531 293.522H619.651L619.251 285.042L612.291 285.122C612.211 285.122 612.131 285.122 612.051 285.042L604.531 280.002L585.811 288.082L586.531 293.522Z" fill="#231F20"/>
<path d="M680.291 294.322H648.531C648.451 294.322 648.291 294.242 648.211 294.162C648.131 294.082 648.131 294.002 648.131 293.842L649.091 285.442C649.091 285.282 649.251 285.122 649.411 285.122L658.771 283.922L663.891 280.642C664.051 280.562 664.131 280.562 664.291 280.642L681.251 289.362C681.411 289.442 681.491 289.602 681.491 289.762L680.691 293.922C680.691 294.162 680.451 294.322 680.291 294.322ZM649.011 293.522H679.971L680.691 289.922L664.211 281.442L659.171 284.642C659.091 284.642 659.091 284.722 659.011 284.722L649.891 285.922L649.011 293.522Z" fill="#231F20"/>
<path d="M606.451 281.202C606.211 281.202 606.051 280.962 606.051 280.802L606.371 276.802C606.371 276.562 606.611 276.402 606.771 276.402C607.011 276.402 607.171 276.642 607.171 276.802L606.851 280.802C606.851 281.042 606.691 281.202 606.451 281.202Z" fill="#231F20"/>
<path d="M617.571 285.042C617.331 285.042 617.171 284.802 617.171 284.642L617.651 278.882C617.651 278.642 617.891 278.482 618.051 278.482C618.291 278.482 618.451 278.722 618.451 278.882L617.971 284.642C617.971 284.882 617.811 285.042 617.571 285.042Z" fill="#231F20"/>
<path d="M652.451 285.522C652.291 285.522 652.051 285.362 652.051 285.202L651.491 281.042C651.491 280.802 651.651 280.642 651.811 280.562C652.051 280.562 652.211 280.722 652.291 280.882L652.851 285.042C652.931 285.362 652.771 285.522 652.451 285.522C652.531 285.522 652.451 285.522 652.451 285.522Z" fill="#231F20"/>
<path d="M662.611 282.402C662.371 282.402 662.211 282.242 662.211 282.002L661.971 278.642C661.971 278.402 662.131 278.242 662.371 278.242C662.611 278.242 662.771 278.402 662.771 278.642L663.011 282.002C663.011 282.162 662.851 282.402 662.611 282.402Z" fill="#231F20"/>
<path d="M657.891 150.882C657.651 150.882 657.491 150.642 657.491 150.482L660.931 98.962L654.691 86.162L650.691 85.0419C650.451 84.9619 650.371 84.802 650.371 84.562C650.451 84.322 650.611 84.2419 650.851 84.2419L655.011 85.362C655.091 85.362 655.251 85.442 655.251 85.602L661.651 98.6419C661.651 98.7219 661.731 98.802 661.731 98.882L658.291 150.482C658.291 150.722 658.131 150.882 657.891 150.882Z" fill="#231F20"/>
<path d="M609.091 147.122C608.851 147.122 608.691 146.962 608.691 146.722L604.931 99.682C604.931 99.602 604.931 99.5219 605.011 99.4419L612.611 86.562C612.691 86.482 612.771 86.402 612.851 86.402L616.611 85.442C616.851 85.362 617.011 85.522 617.091 85.762C617.171 86.002 617.011 86.162 616.771 86.242L613.171 87.122L605.731 99.762L609.491 146.722C609.491 146.962 609.331 147.122 609.091 147.122Z" fill="#231F20"/>
<path d="M595.731 110.642C595.651 110.642 595.571 110.642 595.491 110.562L580.771 97.602C580.611 97.442 580.611 97.2819 580.691 97.1219L601.811 63.122C601.891 63.042 601.971 62.962 602.051 62.962L625.891 57.282C625.971 57.282 626.131 57.282 626.211 57.362L633.411 62.002L641.491 57.362C641.571 57.282 641.731 57.282 641.811 57.362L664.931 64.402C665.011 64.402 665.091 64.482 665.171 64.562L683.651 95.282C683.731 95.442 683.731 95.6819 683.571 95.8419L669.331 105.922C669.251 106.002 669.171 106.002 669.011 106.002C668.931 106.002 668.851 105.922 668.771 105.842L661.811 95.682L661.571 98.562C661.571 98.802 661.331 98.962 661.171 98.962C660.931 98.962 660.771 98.722 660.771 98.562L661.091 94.562C661.091 94.402 661.251 94.2419 661.411 94.2419C661.571 94.1619 661.731 94.242 661.811 94.402L669.171 105.202L682.771 95.5219L664.531 64.882L641.731 58.002L633.571 62.722C633.411 62.802 633.251 62.802 633.171 62.722L625.891 58.002L602.451 63.602L581.651 97.202L595.731 109.682L605.091 94.402C605.171 94.242 605.331 94.1619 605.491 94.2419C605.651 94.2419 605.811 94.402 605.811 94.562L606.371 98.7219C606.371 98.9619 606.211 99.122 606.051 99.202C605.811 99.202 605.651 99.042 605.571 98.882L605.171 95.8419L596.131 110.562C596.051 110.562 595.971 110.642 595.731 110.642C595.811 110.642 595.811 110.642 595.731 110.642Z" fill="#231F20"/>
<path d="M617.491 93.682C617.411 93.682 617.331 93.682 617.251 93.602C617.171 93.522 617.091 93.442 617.091 93.282L613.811 60.402C613.811 60.162 613.971 60.002 614.131 60.002C614.371 60.002 614.531 60.1619 614.531 60.3219L617.811 92.722L624.131 91.282L621.091 58.6419C621.091 58.4019 621.251 58.2419 621.491 58.2419C621.731 58.2419 621.891 58.4019 621.891 58.6419L625.011 91.682C625.011 91.842 624.931 92.082 624.691 92.082L617.571 93.682C617.491 93.682 617.491 93.682 617.491 93.682Z" fill="#231F20"/>
<path d="M649.971 92.4019C649.971 92.4019 649.891 92.4019 649.971 92.4019L643.891 91.3619C643.651 91.3619 643.571 91.1219 643.571 90.9619L645.651 58.8819C645.651 58.6419 645.891 58.4819 646.051 58.4819C646.291 58.4819 646.451 58.7219 646.451 58.8819L644.371 90.5619L649.571 91.4419L653.011 61.0419C653.011 60.8019 653.251 60.6419 653.491 60.7219C653.731 60.7219 653.891 60.9619 653.811 61.2019L650.371 92.0019C650.371 92.0819 650.291 92.2419 650.211 92.2419C650.131 92.3219 650.051 92.4019 649.971 92.4019Z" fill="#231F20"/>
<path d="M625.971 58.0019C625.971 58.0019 625.891 58.0019 625.971 58.0019C625.651 57.9219 625.571 57.7619 625.571 57.5219L627.091 48.9619C627.091 48.7219 627.331 48.5619 627.571 48.6419C627.811 48.6419 627.971 48.8819 627.891 49.1219L626.371 57.6819C626.291 57.8419 626.131 58.0019 625.971 58.0019Z" fill="#231F20"/>
<path d="M641.651 58.0019C641.491 58.0019 641.331 57.8419 641.251 57.6819L639.171 49.1219C639.091 48.8819 639.251 48.7219 639.491 48.6419C639.731 48.5619 639.891 48.7219 639.971 48.9619L642.051 57.5219C642.131 57.7619 641.971 57.9219 641.731 58.0019C641.731 58.0019 641.731 58.0019 641.651 58.0019Z" fill="#231F20"/>
<path d="M581.091 100.482C581.011 100.482 580.931 100.482 580.851 100.402C580.691 100.322 580.611 100.082 580.691 99.8419L581.811 98.0019C581.891 97.8419 582.131 97.7619 582.371 97.8419C582.53 97.9219 582.611 98.1619 582.531 98.4019L581.411 100.242C581.331 100.402 581.171 100.482 581.091 100.482Z" fill="#231F20"/>
<path d="M633.491 50.0019C629.331 50.0019 623.891 49.2819 622.851 46.7219C621.171 42.4019 620.291 18.5619 620.211 17.6019C620.211 17.3619 620.371 17.2019 620.611 17.2019C620.851 17.2019 621.011 17.3619 621.011 17.6019C621.011 17.8419 621.891 42.2419 623.571 46.4819C624.451 48.6419 630.291 49.5219 635.411 49.2019C639.891 48.9619 642.451 47.9219 642.691 47.1219C643.491 44.2419 645.091 23.0419 644.371 17.6819C644.371 17.4419 644.531 17.2819 644.691 17.2019C644.931 17.2019 645.091 17.3619 645.171 17.5219C645.891 22.9619 644.211 44.4019 643.491 47.2819C642.931 49.3619 637.251 49.8419 635.491 49.9219C634.931 50.0019 634.211 50.0019 633.491 50.0019Z" fill="#231F20"/>
<path d="M618.931 18.002C618.771 18.002 618.531 17.842 618.531 17.682C618.531 17.442 618.611 17.282 618.851 17.202C618.931 17.202 625.811 16.082 632.291 12.162C632.451 12.082 632.691 12.082 632.851 12.322C632.931 12.482 632.931 12.722 632.691 12.882C626.131 16.802 619.091 17.922 618.931 18.002C619.011 18.002 619.011 18.002 618.931 18.002Z" fill="#231F20"/>
<path d="M646.211 18.0019C639.251 18.0019 628.611 14.9619 628.451 14.9619C628.211 14.8819 628.131 14.6419 628.211 14.4819C628.291 14.2419 628.531 14.1619 628.691 14.2419C628.771 14.2419 639.331 17.2819 646.211 17.2819C646.291 17.2819 646.451 17.2819 646.531 17.2819C646.771 17.2819 646.931 17.4419 646.931 17.6819C646.931 17.9219 646.771 18.0819 646.531 18.0819C646.451 18.0019 646.371 18.0019 646.211 18.0019Z" fill="#231F20"/>
<path d="M644.531 34.562C644.451 34.562 644.291 34.482 644.211 34.402C644.051 34.242 644.051 34.002 644.211 33.842C648.051 30.402 649.491 25.042 648.691 16.882C647.971 9.762 638.771 5.76199 630.371 5.52199C624.851 5.44199 618.051 7.122 617.251 12.482C614.851 29.682 619.571 31.842 621.571 32.722C621.811 32.802 621.891 33.042 621.731 33.282C621.651 33.442 621.411 33.602 621.171 33.442C617.571 31.762 614.211 28.002 616.371 12.322C617.011 7.52199 622.451 4.48199 630.291 4.72199C639.011 4.88199 648.611 9.20199 649.331 16.802C650.131 25.202 648.611 30.802 644.531 34.402C644.691 34.562 644.611 34.562 644.531 34.562Z" fill="#231F20"/>
<path d="M639.571 20.562C631.651 20.2419 623.251 19.6019 623.171 19.5219C622.931 19.5219 622.771 19.2819 622.771 19.1219C622.771 18.8819 623.011 18.7219 623.171 18.7219C623.251 18.7219 631.651 19.4419 639.571 19.6819C639.811 19.6819 639.971 19.8419 639.971 20.0819C639.971 20.4019 639.811 20.562 639.571 20.562Z" fill="#231F20"/>
<path d="M630.051 35.682C629.971 35.682 629.891 35.682 629.811 35.602C629.731 35.522 629.651 35.442 629.651 35.282V19.682C629.651 19.442 629.811 19.282 630.051 19.282C630.291 19.282 630.451 19.442 630.451 19.682V34.882L636.051 34.402C636.291 34.402 636.451 34.562 636.451 34.802C636.451 35.042 636.291 35.202 636.051 35.202L630.051 35.682Z" fill="#231F20"/>
<path d="M636.851 42.0819H636.771C634.051 41.4419 629.491 42.0819 629.491 42.0819C629.251 42.0819 629.091 42.0019 629.011 41.7619C629.011 41.5219 629.091 41.3619 629.331 41.2819C629.491 41.2819 634.131 40.5619 636.931 41.2819C637.171 41.3619 637.251 41.5219 637.251 41.7619C637.171 41.9219 637.011 42.0819 636.851 42.0819Z" fill="#231F20"/>
<path d="M647.651 123.202L622.611 122.082C622.451 122.082 622.291 121.922 622.211 121.762C622.211 121.522 619.571 99.522 619.491 99.282C619.491 99.202 619.491 99.042 619.571 98.962C619.651 98.882 619.811 98.802 619.891 98.802L649.411 99.762C649.491 99.762 649.651 99.842 649.731 99.922C649.811 100.002 649.811 100.082 649.811 100.242L648.051 122.882C648.051 123.042 647.891 123.202 647.651 123.202ZM623.011 121.282L647.251 122.322L649.011 100.482L620.371 99.602C620.531 100.882 621.091 105.362 623.011 121.282Z" fill="#231F20"/>
<path d="M608.451 168.722C608.371 168.722 608.291 168.722 608.211 168.642C608.051 168.562 607.971 168.322 608.051 168.082C616.451 153.922 617.091 147.362 617.091 147.282C617.091 147.042 617.331 146.882 617.491 146.882C617.731 146.882 617.891 147.122 617.891 147.282C617.891 147.522 617.251 154.082 608.691 168.402C608.691 168.722 608.531 168.722 608.451 168.722Z" fill="#231F20"/>
<path d="M658.691 168.722C658.611 168.722 658.451 168.642 658.371 168.562C650.691 160.162 648.371 149.922 648.371 149.762C648.291 149.522 648.451 149.362 648.691 149.282C648.931 149.202 649.091 149.362 649.171 149.602C649.171 149.682 651.491 159.762 659.011 168.002C659.171 168.162 659.171 168.402 659.011 168.562C658.851 168.722 658.771 168.722 658.691 168.722Z" fill="#231F20"/>
<path d="M629.331 180.402C629.251 180.402 629.091 180.322 629.011 180.242L626.931 177.842C626.851 177.762 626.851 177.682 626.851 177.602L625.171 156.082C625.171 155.842 625.331 155.682 625.571 155.682C625.811 155.682 625.971 155.842 625.971 156.082L627.651 177.442L629.651 179.682C629.811 179.842 629.811 180.082 629.651 180.242C629.571 180.402 629.491 180.402 629.331 180.402Z" fill="#231F20"/>
<path d="M636.531 180.962H634.131C633.891 180.962 633.731 180.802 633.731 180.562C633.731 180.322 633.891 180.162 634.131 180.162H636.611C636.851 180.162 637.011 180.322 637.011 180.562C636.931 180.802 636.771 180.962 636.531 180.962Z" fill="#231F20"/>
<path d="M658.291 145.042L608.771 143.042C608.531 143.042 608.371 142.882 608.371 142.642C608.371 142.402 608.531 142.242 608.771 142.242L658.291 144.242C658.531 144.242 658.691 144.402 658.691 144.642C658.691 144.882 658.531 145.042 658.291 145.042Z" fill="#231F20"/>
<path d="M585.891 292.242C585.651 292.242 585.491 292.082 585.491 291.842C585.491 291.602 585.651 291.442 585.891 291.442L619.891 290.562C620.131 290.562 620.291 290.722 620.291 290.962C620.291 291.202 620.131 291.362 619.891 291.362L585.891 292.242Z" fill="#231F20"/>
<path d="M680.691 292.242L648.931 290.962C648.691 290.962 648.531 290.802 648.531 290.562C648.531 290.322 648.691 290.162 648.931 290.162L680.691 291.442C680.931 291.442 681.091 291.602 681.091 291.842C681.091 292.082 680.931 292.242 680.691 292.242Z" fill="#231F20"/>
<path d="M604.131 284.242C603.971 284.242 603.891 284.162 603.811 284.082L601.411 280.962C601.251 280.802 601.331 280.562 601.491 280.402C601.651 280.242 601.891 280.322 602.051 280.482L604.451 283.602C604.611 283.762 604.531 284.002 604.371 284.162C604.371 284.242 604.211 284.242 604.131 284.242Z" fill="#231F20"/>
<path d="M600.371 285.042C600.291 285.042 600.131 284.962 600.051 284.882L597.811 282.562C597.651 282.402 597.651 282.162 597.811 282.002C597.971 281.842 598.211 281.842 598.371 282.002L600.611 284.322C600.771 284.482 600.771 284.722 600.611 284.882C600.531 285.042 600.451 285.042 600.371 285.042Z" fill="#231F20"/>
<path d="M663.891 285.042C663.811 285.042 663.651 284.962 663.571 284.882C663.411 284.722 663.491 284.482 663.651 284.322L666.451 282.002C666.611 281.842 666.851 281.922 667.011 282.082C667.171 282.242 667.091 282.482 666.931 282.642L664.131 284.962C664.051 285.042 663.971 285.042 663.891 285.042Z" fill="#231F20"/>
<path d="M667.171 286.162C667.011 286.162 666.931 286.082 666.851 286.002C666.691 285.842 666.771 285.602 666.931 285.442L669.491 283.522C669.651 283.362 669.891 283.442 670.051 283.602C670.211 283.762 670.131 284.002 669.971 284.162L667.411 286.082C667.331 286.162 667.251 286.162 667.171 286.162Z" fill="#231F20"/>
<path d="M593.491 291.842C593.331 291.842 593.171 291.762 593.091 291.522L591.091 285.282C591.011 285.042 591.171 284.882 591.331 284.802C591.571 284.722 591.731 284.882 591.811 285.042L593.811 291.282C593.891 291.522 593.731 291.682 593.571 291.762L593.491 291.842Z" fill="#231F20"/>
<path d="M673.331 291.842C673.251 291.842 673.251 291.842 673.171 291.842C672.931 291.762 672.851 291.522 672.931 291.282L674.851 286.642C674.931 286.402 675.171 286.322 675.411 286.402C675.651 286.482 675.731 286.722 675.651 286.962L673.731 291.602C673.651 291.682 673.491 291.842 673.331 291.842Z" fill="#231F20"/>
<path d="M684.291 99.842C684.131 99.842 684.051 99.762 683.971 99.682L681.731 96.322C681.571 96.162 681.651 95.922 681.811 95.762C681.971 95.602 682.211 95.682 682.371 95.842L684.611 99.202C684.771 99.362 684.691 99.602 684.531 99.762C684.451 99.842 684.371 99.842 684.291 99.842Z" fill="#231F20"/>
<path d="M583.331 102.962C583.251 102.962 583.171 102.962 583.091 102.882L561.331 86.402C561.251 86.402 561.251 86.322 561.251 86.322L555.971 77.442L549.571 76.002L548.131 84.482H551.891L552.371 79.522C552.371 79.282 552.611 79.122 552.771 79.122C553.011 79.122 553.171 79.362 553.171 79.522L552.691 84.802C552.691 85.042 552.531 85.202 552.291 85.202H547.651C547.571 85.202 547.411 85.122 547.331 85.042C547.251 84.962 547.251 84.802 547.251 84.722L548.851 75.282C548.851 75.202 548.931 75.042 549.011 75.042C549.091 74.962 549.251 74.962 549.331 74.962L556.371 76.562C556.451 76.562 556.531 76.642 556.611 76.722L561.971 85.682L583.731 102.162C583.891 102.322 583.971 102.562 583.811 102.722C583.571 102.882 583.491 102.962 583.331 102.962Z" fill="#231F20"/>
<path d="M554.611 81.4421H552.531C552.291 81.4421 552.131 81.2821 552.131 81.0421C552.131 80.8021 552.291 80.6421 552.531 80.6421H554.691C554.931 80.6421 555.091 80.8021 555.091 81.0421C555.011 81.2821 554.851 81.4421 554.611 81.4421Z" fill="#231F20"/>
<path d="M584.931 123.202C584.851 123.202 584.691 123.122 584.611 123.042L554.931 92.722L544.051 94.242C543.891 94.242 543.651 94.162 543.651 94.002L540.611 85.842C540.611 85.762 540.611 85.762 540.611 85.682L541.251 77.282C541.251 77.122 541.411 76.962 541.651 76.882L548.931 76.322C549.171 76.322 549.331 76.482 549.331 76.722C549.331 76.962 549.171 77.122 548.931 77.122L541.971 77.682L541.411 85.682L544.291 93.522L555.091 92.002C555.251 92.002 555.331 92.002 555.411 92.082L584.931 122.162L594.531 109.202C594.691 109.042 594.931 108.962 595.091 109.122C595.251 109.282 595.331 109.522 595.171 109.682L585.251 122.962C585.251 123.122 585.091 123.122 584.931 123.202C585.011 123.202 585.011 123.202 584.931 123.202Z" fill="#231F20"/>
<path d="M541.331 81.442C541.091 81.442 540.931 81.282 540.931 81.0421C540.931 80.8021 541.091 80.6421 541.331 80.6421L548.211 80.2421C548.451 80.2421 548.611 80.4021 548.611 80.6421C548.611 80.8821 548.451 81.0421 548.211 81.0421L541.331 81.442C541.411 81.442 541.411 81.442 541.331 81.442Z" fill="#231F20"/>
<path d="M541.011 86.0821C540.771 86.0821 540.611 85.9221 540.611 85.6821C540.611 85.4421 540.771 85.2821 541.011 85.2821L549.731 84.4821C549.971 84.4821 550.131 84.6421 550.131 84.8821C550.131 85.1221 549.971 85.2821 549.731 85.2821L541.011 86.0821C541.091 86.0821 541.011 86.0821 541.011 86.0821Z" fill="#231F20"/>
<path d="M542.531 90.162C542.371 90.162 542.131 90.002 542.131 89.842C542.131 89.602 542.211 89.442 542.451 89.362L550.931 87.922L550.211 84.962C550.131 84.722 550.291 84.562 550.531 84.482C550.771 84.402 550.931 84.562 551.011 84.802L551.811 88.162C551.811 88.242 551.811 88.402 551.731 88.482C551.651 88.562 551.571 88.642 551.491 88.642L542.531 90.162C542.611 90.162 542.531 90.162 542.531 90.162Z" fill="#231F20"/>
<path d="M551.011 93.282C550.851 93.282 550.691 93.202 550.611 92.962L549.331 88.642C549.251 88.402 549.411 88.242 549.571 88.162C549.811 88.082 549.971 88.242 550.051 88.402L551.331 92.722C551.411 92.962 551.251 93.122 551.091 93.202C551.091 93.282 551.011 93.282 551.011 93.282Z" fill="#231F20"/>
<path d="M680.291 101.442C680.131 101.442 679.971 101.362 679.891 101.202C679.811 100.962 679.891 100.802 680.131 100.722L709.971 88.8021L714.691 80.8821C714.771 80.8021 714.851 80.7221 714.931 80.7221L721.971 79.1221C722.051 79.1221 722.211 79.1221 722.291 79.2021C722.371 79.2821 722.451 79.3621 722.451 79.4421L724.051 88.8821C724.051 88.9621 724.051 89.1221 723.971 89.2021C723.891 89.2821 723.811 89.3621 723.651 89.3621H719.011C718.771 89.3621 718.611 89.2021 718.611 88.9621L718.131 83.6821C718.131 83.4421 718.291 83.2821 718.531 83.2821C718.771 83.2821 718.931 83.4421 718.931 83.6821L719.411 88.6421H723.171L721.731 80.1621L715.331 81.6021L710.611 89.4421C710.531 89.5221 710.531 89.6021 710.451 89.6021L680.531 101.602C680.371 101.362 680.371 101.442 680.291 101.442Z" fill="#231F20"/>
<path d="M718.691 85.362H716.531C716.291 85.362 716.131 85.202 716.131 84.962C716.131 84.722 716.291 84.562 716.531 84.562H718.691C718.931 84.562 719.091 84.722 719.091 84.962C719.091 85.202 718.931 85.362 718.691 85.362Z" fill="#231F20"/>
<path d="M680.051 118.562C679.891 118.562 679.811 118.482 679.731 118.402L669.811 104.802C669.651 104.642 669.731 104.402 669.891 104.242C670.051 104.082 670.291 104.162 670.451 104.322L680.131 117.602L715.811 95.842C715.891 95.762 715.971 95.762 716.051 95.762L726.851 97.282L729.731 89.442L729.171 81.442L722.211 80.882C721.971 80.882 721.811 80.642 721.811 80.482C721.811 80.242 721.971 80.082 722.211 80.082L729.491 80.642C729.651 80.642 729.811 80.802 729.891 81.042L730.531 89.442C730.531 89.522 730.531 89.522 730.531 89.602L727.491 97.762C727.411 97.922 727.251 98.082 727.091 98.002L716.131 96.482L680.291 118.322C680.211 118.562 680.131 118.562 680.051 118.562Z" fill="#231F20"/>
<path d="M729.811 85.3621L722.851 84.9621C722.611 84.9621 722.451 84.7221 722.451 84.5621C722.451 84.3221 722.611 84.1621 722.851 84.1621L729.731 84.5621C729.971 84.5621 730.131 84.8021 730.131 84.9621C730.211 85.2021 730.051 85.3621 729.811 85.3621Z" fill="#231F20"/>
<path d="M730.131 90.0021L721.411 89.2021C721.171 89.2021 721.011 88.9621 721.011 88.8021C721.011 88.5621 721.251 88.4021 721.411 88.4021L730.131 89.2021C730.371 89.2021 730.531 89.4421 730.531 89.6021C730.531 89.8421 730.371 90.0021 730.131 90.0021Z" fill="#231F20"/>
<path d="M728.691 94.0821C728.611 94.0821 728.611 94.0821 728.691 94.0821L719.731 92.5621C719.651 92.5621 719.491 92.4821 719.491 92.4021C719.411 92.3221 719.411 92.1621 719.411 92.0821L720.211 88.7221C720.291 88.4821 720.451 88.4021 720.691 88.4021C720.931 88.4821 721.011 88.6421 721.011 88.8821L720.291 91.8421L728.771 93.2821C729.011 93.2821 729.171 93.5221 729.091 93.7621C729.011 93.9221 728.851 94.0821 728.691 94.0821Z" fill="#231F20"/>
<path d="M720.211 97.2021H720.131C719.891 97.1221 719.811 96.8821 719.891 96.7221L721.171 92.4021C721.251 92.1621 721.491 92.0821 721.651 92.1621C721.891 92.2421 721.971 92.4821 721.891 92.6421L720.611 96.9621C720.531 97.1221 720.371 97.2021 720.211 97.2021Z" fill="#231F20"/>
<path d="M625.891 25.282C625.251 25.282 624.691 24.562 624.691 23.682C624.691 22.802 625.251 22.082 625.891 22.082C626.531 22.082 627.091 22.802 627.091 23.682C627.091 24.562 626.611 25.282 625.891 25.282ZM625.891 22.882C625.731 22.882 625.491 23.202 625.491 23.682C625.491 24.162 625.731 24.482 625.891 24.482C626.051 24.482 626.291 24.162 626.291 23.682C626.291 23.202 626.051 22.882 625.891 22.882Z" fill="#231F20"/>
<path d="M635.091 25.282C634.451 25.282 633.891 24.562 633.891 23.682C633.891 22.802 634.451 22.082 635.091 22.082C635.731 22.082 636.291 22.802 636.291 23.682C636.291 24.562 635.811 25.282 635.091 25.282ZM635.091 22.882C634.931 22.882 634.691 23.202 634.691 23.682C634.691 24.162 634.931 24.482 635.091 24.482C635.251 24.482 635.491 24.162 635.491 23.682C635.491 23.202 635.251 22.882 635.091 22.882Z" fill="#231F20"/>
<path d="M623.891 85.122C623.651 85.122 623.491 84.962 623.491 84.722C623.491 84.482 623.651 84.322 623.891 84.322L644.371 83.522C644.611 83.522 644.771 83.682 644.771 83.922C644.771 84.162 644.611 84.322 644.371 84.322L623.891 85.122Z" fill="#231F20"/>
<path d="M620.771 90.562C619.811 90.562 619.011 89.842 619.011 89.042C619.011 88.162 619.811 87.522 620.771 87.522C621.731 87.522 622.531 88.242 622.531 89.042C622.531 89.922 621.731 90.562 620.771 90.562ZM620.771 88.322C620.211 88.322 619.811 88.642 619.811 89.042C619.811 89.442 620.291 89.762 620.771 89.762C621.331 89.762 621.731 89.442 621.731 89.042C621.731 88.642 621.331 88.322 620.771 88.322Z" fill="#231F20"/>
<path d="M647.571 90.002C646.691 90.002 646.051 89.442 646.051 88.802C646.051 88.082 646.691 87.6021 647.571 87.6021C648.451 87.6021 649.091 88.162 649.091 88.802C649.091 89.442 648.451 90.002 647.571 90.002ZM647.571 88.322C647.171 88.322 646.851 88.562 646.851 88.722C646.851 88.962 647.171 89.122 647.571 89.122C647.971 89.122 648.291 88.882 648.291 88.722C648.291 88.562 647.971 88.322 647.571 88.322Z" fill="#231F20"/>
<path d="M30.1308 295.202C20.4508 295.202 10.6108 295.202 0.530762 295.122V292.722C155.411 293.522 291.491 288.082 368.451 275.682C445.411 263.282 493.731 243.442 520.611 213.362C544.931 186.082 552.851 149.202 546.291 93.522L548.691 93.202C555.331 149.522 547.251 187.042 522.371 214.882C495.091 245.442 446.291 265.442 368.771 278.002C296.691 289.682 169.491 295.202 30.1308 295.202Z" fill="#231F20"/>
<path d="M537.011 58.082C534.931 54.802 533.091 53.2019 529.571 51.8419L529.891 51.1219C533.571 52.562 535.651 54.242 537.731 57.682L537.011 58.082Z" fill="#ED1C24"/>
<path d="M538.131 59.122C538.131 59.042 534.131 51.922 528.611 47.042L529.171 46.402C534.771 51.362 538.851 58.562 538.851 58.642L538.131 59.122Z" fill="#F7941E"/>
<path d="M538.451 59.7621C538.291 59.4421 534.371 52.482 533.251 48.0021L534.051 47.842C535.171 52.242 539.091 59.362 539.171 59.442L538.451 59.7621Z" fill="#00AEEF"/>
<path d="M544.211 77.1219C543.331 70.1619 539.731 61.9219 535.171 55.9219L537.091 54.4819C542.051 60.8019 545.651 69.3619 546.611 76.8019L544.211 77.1219Z" fill="#231F20"/>
<path d="M1280.53 295.202C1104.21 295.202 1009.89 288.962 923.651 275.522C834.051 261.602 778.371 239.442 748.371 205.682C724.611 178.962 716.211 144.402 721.811 97.042L724.211 97.362C718.691 144.082 726.931 178.002 750.211 204.162C779.811 237.522 835.091 259.442 924.051 273.202C1010.13 286.562 1104.37 292.802 1280.53 292.802V295.202Z" fill="#231F20"/>
<path d="M732.931 58.162L732.291 57.762C734.451 54.322 736.451 52.642 740.131 51.202L740.451 51.922C736.851 53.282 734.931 54.882 732.931 58.162Z" fill="#ED1C24"/>
<path d="M731.811 59.202L731.091 58.802C731.171 58.722 735.171 51.442 740.771 46.562L741.331 47.202C735.811 52.002 731.811 59.202 731.811 59.202Z" fill="#F7941E"/>
<path d="M731.411 59.922L730.691 59.522C730.691 59.442 734.691 52.322 735.811 47.922L736.611 48.082C735.491 52.562 731.571 59.602 731.411 59.922Z" fill="#00AEEF"/>
<path d="M726.131 80.962L723.731 80.642C724.531 74.722 727.411 61.602 732.851 54.562L734.771 56.002C729.651 62.722 726.931 75.282 726.131 80.962Z" fill="#231F20"/>
<path d="M523.437 23.4874L522.306 24.6188L529.094 31.407L530.225 30.2756L523.437 23.4874Z" fill="#231F20"/>
<path d="M529.095 23.4908L522.307 30.2789L523.438 31.4103L530.226 24.6221L529.095 23.4908Z" fill="#231F20"/>
<path d="M755.145 89.3202L754.014 90.4515L760.802 97.2397L761.933 96.1083L755.145 89.3202Z" fill="#231F20"/>
<path d="M760.877 89.3146L754.089 96.1028L755.22 97.2341L762.008 90.446L760.877 89.3146Z" fill="#231F20"/>
<path d="M504.146 76.6079L503.014 77.7393L507.426 82.1516L508.558 81.0202L504.146 76.6079Z" fill="#231F20"/>
<path d="M507.422 76.5859L503.01 80.9982L504.141 82.1295L508.553 77.7172L507.422 76.5859Z" fill="#231F20"/>
<path d="M760.57 20.9026L759.438 22.0339L763.851 26.4462L764.982 25.3148L760.57 20.9026Z" fill="#231F20"/>
<path d="M763.851 20.9025L759.438 25.3148L760.57 26.4462L764.982 22.0339L763.851 20.9025Z" fill="#231F20"/>
<path d="M701.971 78.6421C700.211 78.6421 698.771 77.2021 698.771 75.4421C698.771 73.6821 700.211 72.2421 701.971 72.2421C703.731 72.2421 705.171 73.6821 705.171 75.4421C705.171 77.2021 703.731 78.6421 701.971 78.6421ZM701.971 73.8421C701.091 73.8421 700.371 74.5621 700.371 75.4421C700.371 76.3221 701.091 77.0421 701.971 77.0421C702.851 77.0421 703.571 76.3221 703.571 75.4421C703.571 74.5621 702.851 73.8421 701.971 73.8421Z" fill="#231F20"/>
<path d="M563.411 56.6421C561.891 56.6421 560.611 55.3621 560.611 53.8421C560.611 52.3221 561.891 51.0421 563.411 51.0421C564.931 51.0421 566.211 52.3221 566.211 53.8421C566.211 55.4421 565.011 56.6421 563.411 56.6421ZM563.411 52.6421C562.771 52.6421 562.211 53.2021 562.211 53.8421C562.211 54.4821 562.771 55.0421 563.411 55.0421C564.051 55.0421 564.611 54.4821 564.611 53.8421C564.611 53.2021 564.131 52.6421 563.411 52.6421Z" fill="#231F20"/>
<path d="M684.131 39.282H680.771V40.882H684.131V39.282Z" fill="#231F20"/>
<path d="M687.731 42.4819H682.451V44.0819H687.731V42.4819Z" fill="#231F20"/>
<path d="M571.331 14.962H562.611V16.562H571.331V14.962Z" fill="#231F20"/>
<path d="M578.371 14.962H575.811V16.562H578.371V14.962Z" fill="#231F20"/>
<path d="M583.651 18.562H566.931V20.162H583.651V18.562Z" fill="#231F20"/>
<path d="M722.371 3.44202H711.571V5.04202H722.371V3.44202Z" fill="#231F20"/>
<path d="M725.811 0.482056H718.611V2.08206H725.811V0.482056Z" fill="#231F20"/>
</svg>
