<svg version="1.1" xmlns="http://www.w3.org/2000/svg" xmlns:xlink="http://www.w3.org/1999/xlink">

    <symbol viewBox="0 0 177 54" id="logo">
        <path d="M5.43243 42.2726C11.5392 38.5827 18.7033 36.468 26.3421 36.468C33.981 36.468 41.1451 38.5827 47.2519 42.2726C47.2519 42.2726 52.0423 51.983 52.6681 53.2562C52.6897 53.2777 52.6897 53.3209 52.6681 53.3425C52.6465 53.3641 52.6249 53.3856 52.5818 53.3856H52.5602C52.5386 53.3856 52.5171 53.3856 52.4955 53.3641C45.8708 46.5452 36.592 42.3158 26.3421 42.3158C16.0923 42.3158 6.81346 46.5452 0.188813 53.3641C0.167235 53.3856 0.145656 53.3856 0.124077 53.3856C0.124077 53.3856 0.124077 53.3856 0.102499 53.3856C0.0593414 53.3856 0.0377626 53.3641 0.016184 53.3425C-0.00539466 53.3209 -0.00539466 53.2777 0.016184 53.2562C0.663544 51.9614 5.43243 42.2726 5.43243 42.2726ZM11.1076 30.7281C15.8765 29.0881 21.0122 28.2033 26.3421 28.2033C31.6721 28.2033 36.8078 29.0881 41.5767 30.7281L44.8351 37.3311C39.2246 34.6985 32.9452 33.2528 26.3421 33.2528C19.7391 33.2528 13.4813 34.7201 7.84924 37.3311L11.1076 30.7281ZM15.8765 21.0824C19.2643 20.4135 22.7601 20.0466 26.3421 20.0466C29.9242 20.0466 33.4199 20.4135 36.8078 21.0824L39.613 26.7792C35.3836 25.6139 30.9168 24.9881 26.3206 24.9881C21.7243 24.9881 17.2575 25.6139 13.0281 26.7792L15.8765 21.0824ZM20.1059 12.4725C22.1559 12.2783 24.249 12.1704 26.3421 12.1704C28.4353 12.1704 30.5284 12.2783 32.5784 12.4725L35.0599 17.5219C32.2115 17.0903 29.2984 16.853 26.3421 16.853C23.3859 16.853 20.4727 17.0903 17.6244 17.5219L20.1059 12.4725Z" fill="#3CC5D8" />
        <path fill-rule="evenodd" clip-rule="evenodd" d="M26.2126 0.0863133C26.2342 0.043156 26.299 0 26.3421 0C26.4068 0 26.45 0.043156 26.4716 0.0863133C27.2484 1.66156 31.0031 9.27882 31.0031 9.27882H21.6595C21.6811 9.27882 25.4358 1.66156 26.2126 0.0863133Z" fill="#FFAE00" />
        <path d="M90.1354 32.1367L93.3972 30.6219C93.7139 31.7732 94.2839 32.6215 95.1072 33.1668C95.9306 33.7122 96.9756 34.0758 98.274 34.0758C99.4774 34.0758 100.459 33.7122 101.187 33.0457C101.916 32.3791 102.264 31.4702 102.264 30.3189C102.264 28.8646 101.029 27.5315 98.5907 26.3802C98.2424 26.1984 97.989 26.0773 97.799 26.0167C95.0122 24.6836 93.1755 23.4111 92.2571 22.3204C91.3388 21.2297 90.8638 19.8966 90.8638 18.3211C90.8638 16.2609 91.5605 14.6248 92.9538 13.3523C94.3472 12.0799 96.1839 11.4133 98.4324 11.4133C100.301 11.4133 101.852 11.7769 103.088 12.504C104.323 13.2311 105.209 14.2613 105.684 15.5943L102.486 17.2304C101.979 16.4427 101.441 15.8367 100.839 15.4732C100.237 15.1096 99.5407 14.9278 98.7807 14.9278C97.6723 14.9278 96.8173 15.2308 96.1523 15.7761C95.4873 16.3215 95.1706 17.1092 95.1706 18.0787C95.1706 19.5936 96.5956 20.9873 99.4457 22.3204C99.6674 22.4416 99.8257 22.5022 99.9524 22.5627C102.454 23.714 104.164 24.8048 105.083 25.9561C106.001 27.0468 106.476 28.4404 106.476 30.0765C106.476 32.4397 105.716 34.3787 104.228 35.7724C102.739 37.1661 100.681 37.8932 98.1474 37.8932C95.9939 37.8932 94.2522 37.4085 92.8588 36.439C91.4655 35.4088 90.5787 33.9546 90.1354 32.1367ZM82.4085 37.1661L79.5584 30.6824H69.583L66.6696 37.1661H62.3628L74.5549 10.9891L86.747 37.1661H82.4085ZM172.662 37.1661L169.811 30.6824H159.836L156.923 37.1661H152.616L164.808 10.9891L177 37.1661H172.662ZM137.035 25.8955V37.1661H133.204V11.9587H138.904C140.582 11.9587 141.881 12.0798 142.799 12.2616C143.717 12.504 144.509 12.8676 145.174 13.3523C145.966 13.9583 146.567 14.746 146.979 15.7155C147.391 16.6851 147.612 17.7152 147.612 18.8665C147.612 20.8661 147.137 22.4416 146.156 23.5929C145.174 24.7442 143.749 25.4107 141.849 25.6531L150.526 37.1055H145.902L137.51 25.8349H137.035V25.8955ZM120.631 15.4732V37.1661H116.546V15.4126H109.864V11.9587H127.313V15.4126H120.631V15.4732ZM71.1031 27.2892H78.1333L75.5366 21.5326C75.3782 21.1691 75.2199 20.7449 75.0616 20.2602C74.9032 19.7754 74.7449 19.23 74.5865 18.6847C74.4599 19.23 74.3015 19.7754 74.1432 20.1996C73.9848 20.6843 73.8265 21.1085 73.6682 21.5326L71.1031 27.2892ZM161.325 27.2892H168.355L165.758 21.5326C165.6 21.1691 165.441 20.7449 165.283 20.2602C165.125 19.7754 164.966 19.23 164.808 18.6847C164.681 19.23 164.523 19.7754 164.365 20.1996C164.206 20.6843 164.048 21.1085 163.89 21.5326L161.325 27.2892ZM137.289 22.7445H138.017C140.17 22.7445 141.627 22.5022 142.324 21.9568C143.021 21.472 143.401 20.5631 143.401 19.2906C143.401 17.897 143.021 16.9274 142.261 16.3821C141.501 15.8367 140.075 15.5337 138.017 15.5337H137.289V22.7445Z" fill="#4E4E4E" />
        <path d="M156.923 50.4363C156.923 50.0727 157.049 49.7091 157.334 49.4668C157.619 49.2244 157.999 49.0426 158.474 48.9214C158.348 48.8002 158.316 48.6185 158.316 48.4367C158.316 48.2549 158.379 48.0731 158.506 47.9519C158.189 47.8307 157.904 47.5883 157.714 47.2854C157.524 46.9824 157.429 46.6794 157.429 46.3159C157.429 45.7705 157.619 45.3463 157.968 45.0434C158.348 44.6798 158.823 44.5586 159.424 44.5586C159.899 44.5586 160.343 44.6798 160.691 44.9222L162.148 44.5586V45.104L161.134 45.3463C161.325 45.6493 161.451 45.9523 161.451 46.3159C161.451 46.8006 161.261 47.2248 160.881 47.5883C160.501 47.9519 160.026 48.0731 159.424 48.0731C159.234 48.0731 159.044 48.0731 158.918 48.0125C158.854 48.1337 158.823 48.2549 158.823 48.3761C158.823 48.5579 158.886 48.6791 158.981 48.8002C159.203 48.8002 159.361 48.8002 159.456 48.8002C160.216 48.8002 160.849 48.9214 161.293 49.2244C161.768 49.5274 161.99 49.8909 161.99 50.4363C161.99 50.921 161.768 51.3452 161.293 51.6482C160.818 51.9512 160.216 52.0724 159.456 52.0724C158.696 52.0724 158.063 51.9512 157.619 51.6482C157.176 51.3452 156.923 50.9816 156.923 50.4363ZM157.524 50.4363C157.524 50.7393 157.714 51.0422 158.063 51.224C158.411 51.4058 158.886 51.527 159.488 51.527C160.089 51.527 160.564 51.4058 160.913 51.224C161.261 51.0422 161.451 50.7999 161.451 50.4363C161.451 50.1333 161.261 49.8303 160.913 49.6486C160.564 49.4668 160.089 49.3456 159.488 49.3456C158.886 49.3456 158.443 49.4668 158.063 49.6486C157.714 49.8303 157.524 50.1333 157.524 50.4363ZM151.096 49.0426C150.589 48.5579 150.367 47.8913 150.367 47.1642C150.367 46.437 150.621 45.7705 151.096 45.2857C151.603 44.801 152.236 44.5586 153.028 44.5586C153.819 44.5586 154.453 44.801 154.959 45.2857C155.466 45.7705 155.719 46.437 155.719 47.1642C155.719 47.8913 155.466 48.5579 154.959 49.0426C154.453 49.5274 153.819 49.7697 153.028 49.7697C152.236 49.8303 151.603 49.5274 151.096 49.0426ZM140.392 49.0426C139.885 48.5579 139.664 47.8913 139.664 47.1642C139.664 46.437 139.917 45.7705 140.392 45.2857C140.899 44.801 141.532 44.5586 142.324 44.5586C143.116 44.5586 143.749 44.801 144.256 45.2857C144.762 45.7705 144.984 46.437 144.984 47.1642C144.984 47.8913 144.731 48.5579 144.256 49.0426C143.749 49.5274 143.116 49.7697 142.324 49.7697C141.532 49.8303 140.899 49.5274 140.392 49.0426ZM118.003 48.6184L118.193 49.0426C117.75 49.5274 117.116 49.7697 116.325 49.7697C115.533 49.7697 114.868 49.5274 114.361 49.0426C113.855 48.5579 113.633 47.9519 113.633 47.1036C113.633 46.3158 113.855 45.7099 114.33 45.2251C114.773 44.7404 115.406 44.498 116.23 44.498C116.895 44.498 117.433 44.6798 117.876 45.104C118.32 45.5281 118.541 46.0735 118.541 46.74C118.541 46.9218 118.541 47.1036 118.51 47.2248H114.33C114.361 47.8307 114.551 48.3155 114.931 48.679C115.311 49.0426 115.786 49.2244 116.42 49.2244C117.053 49.2244 117.591 49.0426 118.003 48.6184ZM171.268 48.6184L171.458 49.0426C171.015 49.5274 170.381 49.7697 169.59 49.7697C168.798 49.7697 168.133 49.5274 167.626 49.0426C167.12 48.5579 166.898 47.9519 166.898 47.1036C166.898 46.3158 167.12 45.7099 167.595 45.2251C168.038 44.7404 168.671 44.498 169.495 44.498C170.16 44.498 170.698 44.6798 171.142 45.104C171.585 45.5281 171.807 46.0735 171.807 46.74C171.807 46.9218 171.807 47.1036 171.775 47.2248H167.595C167.626 47.8307 167.816 48.3155 168.196 48.679C168.576 49.0426 169.051 49.2244 169.685 49.2244C170.318 49.2244 170.888 49.0426 171.268 48.6184ZM93.4922 48.6184L93.6822 49.0426C93.2388 49.5274 92.6055 49.7697 91.8138 49.7697C91.0221 49.7697 90.3571 49.5274 89.8504 49.0426C89.3437 48.5579 89.0904 47.9519 89.0904 47.1036C89.0904 46.3158 89.312 45.7099 89.7871 45.2251C90.2304 44.7404 90.8638 44.498 91.6871 44.498C92.3521 44.498 92.8905 44.6798 93.3338 45.104C93.7772 45.5281 93.9989 46.0735 93.9989 46.74C93.9989 46.9218 93.9989 47.1036 93.9672 47.2248H89.7871C89.8187 47.8307 90.0087 48.3155 90.3888 48.679C90.7688 49.0426 91.2438 49.2244 91.8771 49.2244C92.5421 49.2244 93.0805 49.0426 93.4922 48.6184ZM83.2635 48.6184L83.4535 49.0426C83.0102 49.5274 82.3768 49.7697 81.5851 49.7697C80.7934 49.7697 80.1284 49.5274 79.6217 49.0426C79.115 48.5579 78.8933 47.9519 78.8933 47.1036C78.8933 46.3158 79.115 45.7099 79.59 45.2251C80.0334 44.7404 80.6667 44.498 81.4901 44.498C82.1551 44.498 82.6935 44.6798 83.1368 45.104C83.5802 45.5281 83.8018 46.0735 83.8018 46.74C83.8018 46.9218 83.8019 47.1036 83.7702 47.2248H79.59C79.6217 47.8307 79.8117 48.3155 80.1917 48.679C80.5717 49.0426 81.0468 49.2244 81.6801 49.2244C82.3135 49.2244 82.8518 49.0426 83.2635 48.6184ZM124.305 48.5578L124.59 48.982C124.368 49.2244 124.115 49.4668 123.767 49.588C123.418 49.7092 123.07 49.8303 122.69 49.8303C121.898 49.8303 121.265 49.588 120.758 49.1032C120.251 48.6185 119.998 48.0125 119.998 47.1642C119.998 46.437 120.251 45.7705 120.726 45.2857C121.201 44.801 121.803 44.498 122.532 44.498C123.418 44.498 124.052 44.6798 124.495 45.104L124.21 45.5887C123.798 45.2251 123.26 45.0434 122.595 45.0434C122.056 45.0434 121.581 45.2251 121.201 45.6493C120.821 46.0735 120.6 46.5582 120.6 47.1642C120.6 47.7701 120.79 48.3155 121.201 48.679C121.613 49.0426 122.088 49.2244 122.722 49.2244C123.387 49.2244 123.925 49.0426 124.305 48.5578ZM176.367 48.3761C176.367 48.1337 176.272 47.9519 176.082 47.8307C175.892 47.7095 175.67 47.5883 175.385 47.4671C175.1 47.4066 174.847 47.2854 174.562 47.1642C174.277 47.043 174.055 46.9218 173.865 46.6794C173.675 46.437 173.58 46.1946 173.58 45.8311C173.58 45.4069 173.738 45.104 174.023 44.8616C174.308 44.6192 174.72 44.498 175.195 44.498C175.892 44.498 176.43 44.6798 176.778 45.0434L176.525 45.4675C176.177 45.1646 175.733 44.9828 175.195 44.9828C174.878 44.9828 174.625 45.0433 174.467 45.2251C174.277 45.4069 174.182 45.5887 174.182 45.7705C174.182 46.0129 174.277 46.1947 174.467 46.3764C174.657 46.4976 174.878 46.6188 175.163 46.74C175.448 46.8006 175.702 46.9218 175.987 47.043C176.272 47.1642 176.493 47.2854 176.683 47.5277C176.873 47.7095 176.968 48.0125 176.968 48.3155C176.968 48.8002 176.778 49.1638 176.43 49.4062C176.082 49.6486 175.638 49.7697 175.132 49.7697C174.783 49.7697 174.435 49.7092 174.087 49.5274C173.738 49.3456 173.517 49.2244 173.39 49.0426L173.707 48.679C173.833 48.8608 174.055 48.982 174.34 49.1032C174.625 49.2244 174.91 49.285 175.163 49.285C175.48 49.285 175.733 49.2244 175.955 49.0426C176.24 48.8608 176.367 48.679 176.367 48.3761ZM103.848 48.3761C103.848 48.1337 103.753 47.9519 103.563 47.8307C103.373 47.7095 103.151 47.5883 102.866 47.4671C102.581 47.4066 102.327 47.2854 102.042 47.1642C101.757 47.043 101.536 46.9218 101.346 46.6794C101.156 46.437 101.061 46.1946 101.061 45.8311C101.061 45.4069 101.219 45.104 101.504 44.8616C101.789 44.6192 102.201 44.498 102.676 44.498C103.373 44.498 103.911 44.6798 104.259 45.0434L104.006 45.4675C103.658 45.1646 103.214 44.9828 102.676 44.9828C102.359 44.9828 102.106 45.0433 101.916 45.2251C101.726 45.4069 101.631 45.5887 101.631 45.7705C101.631 46.0129 101.726 46.1947 101.916 46.3764C102.106 46.4976 102.327 46.6188 102.612 46.74C102.898 46.8006 103.151 46.9218 103.436 47.043C103.721 47.1642 103.943 47.2854 104.133 47.5277C104.323 47.7095 104.418 48.0125 104.418 48.3155C104.418 48.8002 104.228 49.1638 103.879 49.4062C103.531 49.6486 103.088 49.7697 102.581 49.7697C102.232 49.7697 101.884 49.7092 101.536 49.5274C101.187 49.4062 100.966 49.2244 100.839 49.0426L101.156 48.679C101.282 48.8608 101.504 48.982 101.789 49.1032C102.074 49.2244 102.359 49.285 102.612 49.285C102.929 49.285 103.183 49.2244 103.404 49.0426C103.721 48.8608 103.848 48.679 103.848 48.3761ZM98.559 48.3761C98.559 48.1337 98.464 47.9519 98.274 47.8307C98.084 47.7095 97.8623 47.5883 97.5773 47.4671C97.2923 47.4066 97.039 47.2854 96.754 47.1642C96.469 47.043 96.2473 46.9218 96.0573 46.6794C95.8673 46.437 95.7723 46.1946 95.7723 45.8311C95.7723 45.4069 95.9306 45.104 96.2156 44.8616C96.5006 44.6192 96.9123 44.498 97.3873 44.498C98.084 44.498 98.6224 44.6798 98.9707 45.0434L98.7174 45.4675C98.369 45.1646 97.9257 44.9828 97.3873 44.9828C97.0706 44.9828 96.8173 45.0433 96.6273 45.2251C96.4373 45.4069 96.3423 45.5887 96.3423 45.7705C96.3423 46.0129 96.4373 46.1947 96.6273 46.3764C96.8173 46.4976 97.039 46.6188 97.324 46.74C97.609 46.8006 97.8623 46.9218 98.1474 47.043C98.4324 47.1642 98.654 47.2854 98.844 47.5277C99.034 47.7095 99.129 48.0125 99.129 48.3155C99.129 48.8002 98.939 49.1638 98.5907 49.4062C98.2423 49.6486 97.799 49.7697 97.2923 49.7697C96.944 49.7697 96.5956 49.7092 96.2473 49.5274C95.8989 49.4062 95.6773 49.2244 95.5506 49.0426L95.8673 48.679C95.9939 48.8608 96.2156 48.982 96.5006 49.1032C96.7856 49.2244 97.0706 49.285 97.324 49.285C97.6407 49.285 97.894 49.2244 98.1157 49.0426C98.464 48.8608 98.559 48.679 98.559 48.3761ZM69.868 44.6192L68.2213 49.7697H67.7463L66.3529 46.0735C66.2579 45.7705 66.1629 45.5887 66.1312 45.4069C66.0679 45.6493 65.9729 45.8917 65.9096 46.0735L64.5479 49.7092H64.0728L62.3628 44.5586H62.9961L64.1362 48.1337C64.1678 48.1943 64.1995 48.3155 64.2312 48.4973C64.2628 48.6791 64.3262 48.8002 64.3579 48.8608C64.4845 48.4973 64.5479 48.2549 64.6112 48.1337L65.9096 44.5586H66.3846L67.7146 48.0731L67.968 48.8608C67.9996 48.7396 68.0313 48.6184 68.0946 48.3761L69.2664 44.498H69.868V44.6192ZM85.7336 48.3761V41.7712H86.3353V48.0731C86.3353 48.4367 86.3986 48.7396 86.4936 48.9214C86.6203 49.1032 86.7786 49.2244 87.0636 49.2244C87.317 49.2244 87.5386 49.1638 87.7603 48.982L87.9187 49.4668C87.6336 49.7091 87.2536 49.8303 86.842 49.8303C86.0819 49.7697 85.7336 49.285 85.7336 48.3761ZM146.979 48.3761V41.7712H147.581V48.0731C147.581 48.4367 147.644 48.7396 147.739 48.9214C147.866 49.1032 148.024 49.2244 148.309 49.2244C148.562 49.2244 148.784 49.1638 149.006 48.982L149.164 49.4668C148.879 49.7091 148.499 49.8303 148.087 49.8303C147.327 49.7697 146.979 49.285 146.979 48.3761ZM109.579 47.7701V43.2255H110.181V44.6192H112.208V45.1646H110.181V47.6489C110.181 48.679 110.561 49.1638 111.321 49.1638C111.606 49.1638 111.891 49.1032 112.144 48.9214L112.334 49.4062C112.049 49.6486 111.669 49.7697 111.194 49.7697C110.656 49.7697 110.244 49.588 109.991 49.285C109.738 48.982 109.579 48.4367 109.579 47.7701ZM133.235 49.7092V44.6192H133.837V45.3463C134.027 45.104 134.312 44.9222 134.629 44.801C134.945 44.6798 135.294 44.5586 135.642 44.5586C136.339 44.5586 136.877 44.7404 137.225 45.104C137.574 45.4675 137.764 46.0129 137.764 46.8006V49.7092H137.162V46.9218C137.162 45.7099 136.592 45.104 135.484 45.104C135.167 45.104 134.819 45.1645 134.534 45.3463C134.217 45.4675 133.995 45.7099 133.805 45.8917V49.7092H133.235ZM74.9666 49.7092V44.6192H75.5682V45.2857C75.9166 44.801 76.3599 44.498 76.93 44.498C77.2783 44.498 77.5316 44.5586 77.7217 44.6798L77.5316 45.2251C77.31 45.1039 77.0883 45.0434 76.8349 45.0434C76.3283 45.0434 75.9166 45.3463 75.5999 45.8917V49.7092H74.9666ZM126.458 49.7092V41.8318H127.06V45.3463C127.25 45.104 127.535 44.9222 127.852 44.801C128.2 44.6798 128.517 44.5586 128.865 44.5586C130.29 44.5586 130.987 45.3463 130.987 46.8612V49.7697H130.385V46.9824C130.385 45.7705 129.815 45.1646 128.707 45.1646C128.39 45.1646 128.042 45.2251 127.757 45.4069C127.44 45.5281 127.187 45.7705 127.028 45.9523V49.7697H126.458V49.7092ZM164.048 49.7092V44.6192H164.65V49.7092H164.048ZM71.7681 49.7092V44.6192H72.3698V49.7092H71.7681ZM151.539 45.6493C151.159 46.0129 150.969 46.5582 150.969 47.1642C150.969 47.7701 151.159 48.2549 151.539 48.679C151.919 49.0426 152.426 49.285 152.996 49.285C153.598 49.285 154.073 49.1032 154.453 48.679C154.833 48.3155 155.023 47.7701 155.023 47.1642C155.023 46.5582 154.833 46.0735 154.453 45.6493C154.073 45.2857 153.566 45.0434 152.996 45.0434C152.426 45.104 151.951 45.2857 151.539 45.6493ZM140.835 45.6493C140.455 46.0129 140.265 46.5582 140.265 47.1642C140.265 47.7701 140.455 48.2549 140.835 48.679C141.215 49.0426 141.722 49.285 142.292 49.285C142.894 49.285 143.369 49.1032 143.749 48.679C144.129 48.3155 144.319 47.7701 144.319 47.1642C144.319 46.5582 144.129 46.0735 143.749 45.6493C143.369 45.2857 142.862 45.0434 142.292 45.0434C141.722 45.104 141.247 45.2857 140.835 45.6493ZM158.443 45.4069C158.189 45.6493 158.063 45.9523 158.063 46.3159C158.063 46.6794 158.189 46.9824 158.443 47.2248C158.696 47.4672 159.044 47.5883 159.456 47.5883C159.868 47.5883 160.216 47.4672 160.469 47.2248C160.723 46.9824 160.85 46.6794 160.85 46.3159C160.85 45.9523 160.723 45.6493 160.438 45.4069C160.184 45.1645 159.836 45.0434 159.424 45.0434C159.044 45.0434 158.728 45.1645 158.443 45.4069ZM116.135 45.104C115.596 45.104 115.153 45.2857 114.805 45.5887C114.488 45.8917 114.298 46.3158 114.235 46.8612H117.876C117.876 46.3158 117.718 45.8917 117.401 45.5887C117.116 45.2251 116.673 45.104 116.135 45.104ZM169.431 45.104C168.893 45.104 168.45 45.2857 168.101 45.5887C167.785 45.8917 167.563 46.3158 167.531 46.8612H171.173C171.173 46.3158 171.015 45.8917 170.698 45.5887C170.381 45.2251 169.938 45.104 169.431 45.104ZM81.3951 45.104C80.8568 45.104 80.4134 45.2857 80.0651 45.5887C79.7484 45.8917 79.5584 46.3158 79.495 46.8612H83.1368C83.1368 46.3158 82.9785 45.8917 82.6618 45.5887C82.3768 45.2251 81.9335 45.104 81.3951 45.104ZM91.6238 45.104C91.0854 45.104 90.6421 45.2857 90.2937 45.5887C89.9771 45.8917 89.7871 46.3158 89.7237 46.8612H93.3655C93.3655 46.3158 93.2072 45.8917 92.8905 45.5887C92.5738 45.2251 92.1621 45.104 91.6238 45.104ZM71.6414 42.6802C71.6414 42.559 71.6731 42.4984 71.7681 42.4378C71.8631 42.3772 71.9581 42.3166 72.0531 42.3166C72.1481 42.3166 72.2431 42.3772 72.3065 42.4378C72.3698 42.4984 72.4331 42.6196 72.4331 42.6802C72.4331 42.8014 72.4015 42.9225 72.3065 42.9831C72.2431 43.0437 72.1481 43.1043 72.0215 43.1043C71.8948 43.1043 71.7998 43.0437 71.7364 42.9831C71.7048 42.8619 71.6414 42.8014 71.6414 42.6802ZM163.953 42.6802C163.953 42.559 163.985 42.4984 164.08 42.4378C164.175 42.3772 164.27 42.3166 164.365 42.3166C164.46 42.3166 164.555 42.3772 164.618 42.4378C164.681 42.4984 164.745 42.6196 164.745 42.6802C164.745 42.8014 164.713 42.9225 164.618 42.9831C164.555 43.0437 164.46 43.1043 164.333 43.1043C164.206 43.1043 164.111 43.0437 164.048 42.9831C163.985 42.8619 163.953 42.8014 163.953 42.6802Z" fill="#7B7B7B" />
    </symbol>

    <svg viewBox="0 0 89 28" id="logo-fixed">
        <path d="M2.71712 21.7925C5.77153 19.9469 9.35478 18.8892 13.1755 18.8892C16.9962 18.8892 20.5794 19.9469 23.6339 21.7925C23.6339 21.7925 26.0299 26.6493 26.3429 27.2861C26.3537 27.2969 26.3537 27.3185 26.3429 27.3293C26.3321 27.3401 26.3213 27.3508 26.2997 27.3508H26.2889C26.2781 27.3508 26.2673 27.3508 26.2565 27.3401C22.9431 23.9295 18.3021 21.8141 13.1755 21.8141C8.04884 21.8141 3.40787 23.9295 0.0944383 27.3401C0.0836453 27.3508 0.0728524 27.3508 0.0620594 27.3508C0.0620594 27.3508 0.0620595 27.3508 0.0512665 27.3508C0.0296807 27.3508 0.0188877 27.3401 0.00809471 27.3293C-0.00269824 27.3185 -0.00269824 27.2969 0.00809471 27.2861C0.331883 26.6385 2.71712 21.7925 2.71712 21.7925ZM5.55567 16.0183C7.94091 15.198 10.5096 14.7555 13.1755 14.7555C15.8413 14.7555 18.4101 15.198 20.7953 16.0183L22.425 19.3209C19.6189 18.0042 16.4781 17.281 13.1755 17.281C9.87285 17.281 6.74289 18.015 3.92593 19.3209L5.55567 16.0183ZM7.94091 11.1938C9.6354 10.8592 11.3839 10.6758 13.1755 10.6758C14.9671 10.6758 16.7156 10.8592 18.4101 11.1938L19.8131 14.0432C17.6977 13.4603 15.4636 13.1473 13.1647 13.1473C10.8658 13.1473 8.63166 13.4603 6.51624 14.0432L7.94091 11.1938ZM10.0563 6.88743C11.0817 6.79029 12.1286 6.73633 13.1755 6.73633C14.2224 6.73633 15.2693 6.79029 16.2946 6.88743L17.5358 9.41298C16.1112 9.19712 14.6541 9.0784 13.1755 9.0784C11.6969 9.0784 10.2398 9.19712 8.81514 9.41298L10.0563 6.88743Z" fill="white" />
        <path fill-rule="evenodd" clip-rule="evenodd" d="M13.1107 0.692341C13.1215 0.670755 13.1539 0.64917 13.1755 0.64917C13.2079 0.64917 13.2295 0.670755 13.2403 0.692341C13.6288 1.48023 15.5068 5.29014 15.5068 5.29014H10.8334C10.8442 5.29014 12.7222 1.48023 13.1107 0.692341Z" fill="white" />
        <path d="M45.0828 16.7229L46.7142 15.9652C46.8726 16.541 47.1577 16.9653 47.5695 17.2381C47.9814 17.5108 48.5041 17.6927 49.1535 17.6927C49.7554 17.6927 50.2464 17.5108 50.6107 17.1775C50.975 16.8441 51.1492 16.3895 51.1492 15.8136C51.1492 15.0862 50.5315 14.4195 49.3119 13.8436C49.1376 13.7527 49.0109 13.6921 48.9159 13.6618C47.522 12.995 46.6034 12.3586 46.144 11.813C45.6847 11.2675 45.4471 10.6007 45.4471 9.81272C45.4471 8.78227 45.7956 7.96397 46.4925 7.32751C47.1894 6.69105 48.1081 6.35766 49.2327 6.35766C50.1672 6.35766 50.9433 6.53951 51.561 6.9032C52.1788 7.26689 52.6223 7.78212 52.8598 8.44888L51.2601 9.26719C51.0066 8.87319 50.7374 8.57012 50.4364 8.38827C50.1355 8.20643 49.787 8.1155 49.4069 8.1155C48.8525 8.1155 48.4249 8.26704 48.0922 8.53981C47.7596 8.81258 47.6012 9.20657 47.6012 9.6915C47.6012 10.4492 48.314 11.1463 49.7395 11.813C49.8504 11.8736 49.9296 11.9039 49.9929 11.9343C51.2442 12.5101 52.0996 13.0556 52.5589 13.6315C53.0182 14.177 53.2558 14.8741 53.2558 15.6924C53.2558 16.8744 52.8757 17.8442 52.1312 18.5413C51.3868 19.2384 50.3572 19.6021 49.0901 19.6021C48.0131 19.6021 47.1419 19.3596 46.445 18.8747C45.748 18.3595 45.3045 17.6321 45.0828 16.7229ZM41.218 19.2384L39.7925 15.9955H34.8032L33.346 19.2384H31.1918L37.2899 6.14551L43.388 19.2384H41.218ZM86.3597 19.2384L84.9342 15.9955H79.9448L78.4876 19.2384H76.3335L82.4316 6.14551L88.5297 19.2384H86.3597ZM68.5406 13.6012V19.2384H66.6241V6.63043H69.4751C70.3146 6.63043 70.964 6.69105 71.4234 6.78197C71.8827 6.9032 72.2787 7.08505 72.6113 7.32751C73.0073 7.63059 73.3082 8.02458 73.5141 8.5095C73.72 8.99442 73.8309 9.50965 73.8309 10.0855C73.8309 11.0856 73.5933 11.8736 73.1023 12.4495C72.6113 13.0253 71.8985 13.3587 70.9482 13.4799L75.2881 19.2081H72.9756L68.7782 13.5709H68.5406V13.6012ZM60.3359 8.38827V19.2384H58.2927V8.35796H54.9506V6.63043H63.678V8.35796H60.3359V8.38827ZM35.5634 14.2982H39.0797L37.7809 11.419C37.7017 11.2372 37.6225 11.025 37.5433 10.7826C37.4641 10.5401 37.385 10.2673 37.3058 9.99457C37.2424 10.2673 37.1632 10.5401 37.084 10.7523C37.0048 10.9947 36.9256 11.2069 36.8464 11.419L35.5634 14.2982ZM80.6893 14.2982H84.2056L82.9068 11.419C82.8276 11.2372 82.7484 11.025 82.6692 10.7826C82.59 10.5401 82.5108 10.2673 82.4316 9.99457C82.3682 10.2673 82.289 10.5401 82.2099 10.7523C82.1307 10.9947 82.0515 11.2069 81.9723 11.419L80.6893 14.2982ZM68.6673 12.0252H69.0316C70.1087 12.0252 70.8373 11.9039 71.1858 11.6312C71.5342 11.3887 71.7243 10.9341 71.7243 10.2976C71.7243 9.60057 71.5342 9.11566 71.1541 8.84289C70.774 8.57012 70.0612 8.41857 69.0316 8.41857H68.6673V12.0252Z" fill="white" />
        <path d="M78.4876 25.8757C78.4876 25.6939 78.551 25.512 78.6935 25.3908C78.8361 25.2696 79.0262 25.1787 79.2638 25.118C79.2004 25.0574 79.1846 24.9665 79.1846 24.8756C79.1846 24.7847 79.2162 24.6937 79.2796 24.6331C79.1212 24.5725 78.9786 24.4513 78.8836 24.2997C78.7886 24.1482 78.7411 23.9967 78.7411 23.8148C78.7411 23.542 78.8361 23.3299 79.0103 23.1784C79.2004 22.9965 79.438 22.9359 79.7389 22.9359C79.9765 22.9359 80.1983 22.9965 80.3725 23.1177L81.1011 22.9359V23.2087L80.5942 23.3299C80.6893 23.4814 80.7526 23.633 80.7526 23.8148C80.7526 24.0573 80.6576 24.2694 80.4675 24.4513C80.2775 24.6331 80.0399 24.6937 79.7389 24.6937C79.6439 24.6937 79.5489 24.6937 79.4855 24.6634C79.4538 24.724 79.438 24.7847 79.438 24.8453C79.438 24.9362 79.4697 24.9968 79.5172 25.0574C79.6281 25.0574 79.7073 25.0574 79.7548 25.0574C80.1349 25.0574 80.4517 25.118 80.6734 25.2696C80.911 25.4211 81.0219 25.603 81.0219 25.8757C81.0219 26.1182 80.911 26.3303 80.6734 26.4819C80.4359 26.6334 80.1349 26.694 79.7548 26.694C79.3746 26.694 79.0578 26.6334 78.8361 26.4819C78.6143 26.3303 78.4876 26.1485 78.4876 25.8757ZM78.7886 25.8757C78.7886 26.0273 78.8836 26.1788 79.0578 26.2697C79.2321 26.3607 79.4697 26.4213 79.7706 26.4213C80.0715 26.4213 80.3091 26.3607 80.4834 26.2697C80.6576 26.1788 80.7526 26.0576 80.7526 25.8757C80.7526 25.7242 80.6576 25.5727 80.4834 25.4817C80.3091 25.3908 80.0715 25.3302 79.7706 25.3302C79.4697 25.3302 79.2479 25.3908 79.0578 25.4817C78.8836 25.5727 78.7886 25.7242 78.7886 25.8757ZM75.5732 25.1787C75.3198 24.9362 75.2089 24.6028 75.2089 24.2391C75.2089 23.8754 75.3356 23.542 75.5732 23.2996C75.8266 23.0571 76.1434 22.9359 76.5394 22.9359C76.9354 22.9359 77.2522 23.0571 77.5056 23.2996C77.759 23.542 77.8857 23.8754 77.8857 24.2391C77.8857 24.6028 77.759 24.9362 77.5056 25.1787C77.2522 25.4211 76.9354 25.5423 76.5394 25.5423C76.1434 25.5726 75.8266 25.4211 75.5732 25.1787ZM70.2196 25.1787C69.9662 24.9362 69.8553 24.6028 69.8553 24.2391C69.8553 23.8754 69.982 23.542 70.2196 23.2996C70.473 23.0571 70.7898 22.9359 71.1858 22.9359C71.5818 22.9359 71.8985 23.0571 72.152 23.2996C72.4054 23.542 72.5163 23.8754 72.5163 24.2391C72.5163 24.6028 72.3895 24.9362 72.152 25.1787C71.8985 25.4211 71.5818 25.5423 71.1858 25.5423C70.7898 25.5726 70.473 25.4211 70.2196 25.1787ZM59.0213 24.9665L59.1163 25.1787C58.8946 25.4211 58.5778 25.5423 58.1818 25.5423C57.7858 25.5423 57.4532 25.4211 57.1998 25.1787C56.9463 24.9362 56.8355 24.6331 56.8355 24.2088C56.8355 23.8148 56.9463 23.5117 57.1839 23.2693C57.4057 23.0268 57.7225 22.9056 58.1343 22.9056C58.4669 22.9056 58.7362 22.9965 58.9579 23.2087C59.1797 23.4208 59.2905 23.6936 59.2905 24.027C59.2905 24.1179 59.2905 24.2088 59.2747 24.2694H57.1839C57.1998 24.5725 57.2948 24.815 57.4849 24.9968C57.6749 25.1787 57.9125 25.2696 58.2293 25.2696C58.5461 25.2696 58.8154 25.1787 59.0213 24.9665ZM85.6628 24.9665L85.7578 25.1787C85.5361 25.4211 85.2193 25.5423 84.8233 25.5423C84.4273 25.5423 84.0947 25.4211 83.8413 25.1787C83.5879 24.9362 83.477 24.6331 83.477 24.2088C83.477 23.8148 83.5879 23.5117 83.8254 23.2693C84.0472 23.0268 84.364 22.9056 84.7758 22.9056C85.1084 22.9056 85.3777 22.9965 85.5994 23.2087C85.8212 23.4208 85.9321 23.6936 85.9321 24.027C85.9321 24.1179 85.9321 24.2088 85.9162 24.2694H83.8254C83.8413 24.5725 83.9363 24.815 84.1264 24.9968C84.3165 25.1787 84.554 25.2696 84.8708 25.2696C85.1876 25.2696 85.4727 25.1787 85.6628 24.9665ZM46.7618 24.9665L46.8568 25.1787C46.635 25.4211 46.3183 25.5423 45.9223 25.5423C45.5263 25.5423 45.1937 25.4211 44.9402 25.1787C44.6868 24.9362 44.5601 24.6331 44.5601 24.2088C44.5601 23.8148 44.671 23.5117 44.9086 23.2693C45.1303 23.0268 45.4471 22.9056 45.8589 22.9056C46.1915 22.9056 46.4608 22.9965 46.6826 23.2087C46.9043 23.4208 47.0152 23.6936 47.0152 24.027C47.0152 24.1179 47.0152 24.2088 46.9993 24.2694H44.9086C44.9244 24.5725 45.0194 24.815 45.2095 24.9968C45.3996 25.1787 45.6372 25.2696 45.9539 25.2696C46.2866 25.2696 46.5558 25.1787 46.7618 24.9665ZM41.6457 24.9665L41.7407 25.1787C41.519 25.4211 41.2022 25.5423 40.8062 25.5423C40.4102 25.5423 40.0776 25.4211 39.8242 25.1787C39.5708 24.9362 39.4599 24.6331 39.4599 24.2088C39.4599 23.8148 39.5708 23.5117 39.8083 23.2693C40.0301 23.0268 40.3469 22.9056 40.7587 22.9056C41.0913 22.9056 41.3606 22.9965 41.5823 23.2087C41.8041 23.4208 41.915 23.6936 41.915 24.027C41.915 24.1179 41.915 24.2088 41.8991 24.2694H39.8083C39.8242 24.5725 39.9192 24.815 40.1093 24.9968C40.2994 25.1787 40.537 25.2696 40.8537 25.2696C41.1705 25.2696 41.4398 25.1787 41.6457 24.9665ZM62.1733 24.9362L62.3158 25.1483C62.205 25.2696 62.0782 25.3908 61.904 25.4514C61.7298 25.512 61.5556 25.5726 61.3655 25.5726C60.9695 25.5726 60.6527 25.4514 60.3993 25.209C60.1459 24.9665 60.0191 24.6634 60.0191 24.2391C60.0191 23.8754 60.1459 23.542 60.3834 23.2996C60.621 23.0571 60.922 22.9056 61.2863 22.9056C61.7298 22.9056 62.0466 22.9965 62.2683 23.2087L62.1258 23.4511C61.9198 23.2693 61.6506 23.1784 61.318 23.1784C61.0487 23.1784 60.8111 23.2693 60.621 23.4814C60.431 23.6936 60.3201 23.936 60.3201 24.2391C60.3201 24.5422 60.4151 24.815 60.621 24.9968C60.8269 25.1787 61.0645 25.2696 61.3813 25.2696C61.7139 25.2696 61.9832 25.1786 62.1733 24.9362ZM88.2129 24.8453C88.2129 24.724 88.1654 24.6331 88.0703 24.5725C87.9753 24.5119 87.8644 24.4513 87.7219 24.3907C87.5793 24.3603 87.4526 24.2997 87.3101 24.2391C87.1675 24.1785 87.0566 24.1179 86.9616 23.9967C86.8666 23.8754 86.819 23.7542 86.819 23.5723C86.819 23.3602 86.8982 23.2087 87.0408 23.0874C87.1833 22.9662 87.3893 22.9056 87.6268 22.9056C87.9753 22.9056 88.2446 22.9965 88.4188 23.1784L88.2921 23.3905C88.1179 23.239 87.8961 23.148 87.6268 23.148C87.4685 23.148 87.3417 23.1784 87.2625 23.2693C87.1675 23.3602 87.12 23.4511 87.12 23.542C87.12 23.6633 87.1675 23.7542 87.2625 23.8451C87.3576 23.9057 87.4684 23.9663 87.611 24.027C87.7536 24.0573 87.8803 24.1179 88.0228 24.1785C88.1654 24.2391 88.2763 24.2997 88.3713 24.421C88.4663 24.5119 88.5138 24.6634 88.5138 24.815C88.5138 25.0574 88.4188 25.2393 88.2446 25.3605C88.0703 25.4817 87.8486 25.5423 87.5952 25.5423C87.4209 25.5423 87.2467 25.512 87.0725 25.4211C86.8982 25.3302 86.7874 25.2696 86.724 25.1787L86.8824 24.9968C86.9458 25.0877 87.0566 25.1483 87.1992 25.209C87.3417 25.2696 87.4843 25.2999 87.611 25.2999C87.7694 25.2999 87.8961 25.2696 88.007 25.1787C88.1495 25.0877 88.2129 24.9968 88.2129 24.8453ZM51.9412 24.8453C51.9412 24.724 51.8936 24.6331 51.7986 24.5725C51.7036 24.5119 51.5927 24.4513 51.4501 24.3907C51.3076 24.3603 51.1809 24.2997 51.0383 24.2391C50.8958 24.1785 50.7849 24.1179 50.6899 23.9967C50.5948 23.8754 50.5473 23.7542 50.5473 23.5723C50.5473 23.3602 50.6265 23.2087 50.7691 23.0874C50.9116 22.9662 51.1175 22.9056 51.3551 22.9056C51.7036 22.9056 51.9728 22.9965 52.1471 23.1784L52.0204 23.3905C51.8461 23.239 51.6244 23.148 51.3551 23.148C51.1967 23.148 51.07 23.1784 50.975 23.2693C50.8799 23.3602 50.8324 23.4511 50.8324 23.542C50.8324 23.6633 50.8799 23.7542 50.975 23.8451C51.07 23.9057 51.1809 23.9663 51.3234 24.027C51.466 24.0573 51.5927 24.1179 51.7352 24.1785C51.8778 24.2391 51.9887 24.2997 52.0837 24.421C52.1787 24.5119 52.2263 24.6634 52.2263 24.815C52.2263 25.0574 52.1312 25.2393 51.957 25.3605C51.7828 25.4817 51.561 25.5423 51.3076 25.5423C51.1334 25.5423 50.9591 25.512 50.7849 25.4211C50.6107 25.3605 50.4998 25.2696 50.4364 25.1787L50.5948 24.9968C50.6582 25.0877 50.7691 25.1483 50.9116 25.209C51.0542 25.2696 51.1967 25.2999 51.3234 25.2999C51.4818 25.2999 51.6085 25.2696 51.7194 25.1787C51.8778 25.0877 51.9412 24.9968 51.9412 24.8453ZM49.296 24.8453C49.296 24.724 49.2485 24.6331 49.1535 24.5725C49.0584 24.5119 48.9476 24.4513 48.805 24.3907C48.6624 24.3603 48.5357 24.2997 48.3932 24.2391C48.2506 24.1785 48.1398 24.1179 48.0447 23.9967C47.9497 23.8754 47.9022 23.7542 47.9022 23.5723C47.9022 23.3602 47.9814 23.2087 48.1239 23.0874C48.2665 22.9662 48.4724 22.9056 48.71 22.9056C49.0584 22.9056 49.3277 22.9965 49.5019 23.1784L49.3752 23.3905C49.201 23.239 48.9792 23.148 48.71 23.148C48.5516 23.148 48.4249 23.1784 48.3298 23.2693C48.2348 23.3602 48.1873 23.4511 48.1873 23.542C48.1873 23.6633 48.2348 23.7542 48.3298 23.8451C48.4249 23.9057 48.5357 23.9663 48.6783 24.027C48.8208 24.0573 48.9476 24.1179 49.0901 24.1785C49.2327 24.2391 49.3435 24.2997 49.4386 24.421C49.5336 24.5119 49.5811 24.6634 49.5811 24.815C49.5811 25.0574 49.4861 25.2393 49.3119 25.3605C49.1376 25.4817 48.9159 25.5423 48.6625 25.5423C48.4882 25.5423 48.314 25.512 48.1398 25.4211C47.9655 25.3605 47.8547 25.2696 47.7913 25.1787L47.9497 24.9968C48.013 25.0877 48.1239 25.1483 48.2665 25.209C48.409 25.2696 48.5516 25.2999 48.6783 25.2999C48.8367 25.2999 48.9634 25.2696 49.0743 25.1787C49.2485 25.0877 49.296 24.9968 49.296 24.8453ZM34.9457 22.9662L34.1221 25.5423H33.8845L33.1876 23.6936C33.14 23.542 33.0925 23.4511 33.0767 23.3602C33.045 23.4814 32.9975 23.6027 32.9658 23.6936L32.2847 25.512H32.0471L31.1918 22.9359H31.5086L32.0788 24.724C32.0947 24.7543 32.1105 24.815 32.1263 24.9059C32.1422 24.9968 32.1739 25.0574 32.1897 25.0877C32.2531 24.9059 32.2847 24.7847 32.3164 24.724L32.9658 22.9359H33.2034L33.8686 24.6937L33.9954 25.0877C34.0112 25.0271 34.027 24.9665 34.0587 24.8453L34.6448 22.9056H34.9457V22.9662ZM42.8812 24.8453V21.5417H43.1821V24.6937C43.1821 24.8756 43.2138 25.0271 43.2613 25.118C43.3246 25.209 43.4038 25.2696 43.5464 25.2696C43.6731 25.2696 43.784 25.2393 43.8949 25.1483L43.974 25.3908C43.8315 25.512 43.6414 25.5726 43.4355 25.5726C43.0554 25.5423 42.8812 25.2999 42.8812 24.8453ZM73.5141 24.8453V21.5417H73.8151V24.6937C73.8151 24.8756 73.8468 25.0271 73.8943 25.118C73.9576 25.209 74.0368 25.2696 74.1794 25.2696C74.3061 25.2696 74.417 25.2393 74.5278 25.1483L74.607 25.3908C74.4645 25.512 74.2744 25.5726 74.0685 25.5726C73.6884 25.5423 73.5141 25.2999 73.5141 24.8453ZM54.8081 24.5422V22.2691H55.109V22.9662H56.1227V23.239H55.109V24.4816C55.109 24.9968 55.2991 25.2393 55.6792 25.2393C55.8218 25.2393 55.9643 25.209 56.091 25.118L56.1861 25.3605C56.0435 25.4817 55.8534 25.5423 55.6158 25.5423C55.3466 25.5423 55.1407 25.4514 55.014 25.2999C54.8872 25.1483 54.8081 24.8756 54.8081 24.5422ZM66.6399 25.512V22.9662H66.9409V23.3299C67.0359 23.2087 67.1785 23.1177 67.3368 23.0571C67.4952 22.9965 67.6695 22.9359 67.8437 22.9359C68.1922 22.9359 68.4614 23.0268 68.6357 23.2087C68.8099 23.3905 68.9049 23.6633 68.9049 24.0573V25.512H68.604V24.1179C68.604 23.5117 68.3189 23.2087 67.7645 23.2087C67.6061 23.2087 67.4319 23.239 67.2893 23.3299C67.1309 23.3905 67.0201 23.5117 66.925 23.6027V25.512H66.6399ZM37.4958 25.512V22.9662H37.7968V23.2996C37.971 23.0571 38.1928 22.9056 38.4779 22.9056C38.6521 22.9056 38.7788 22.9359 38.8738 22.9965L38.7788 23.2693C38.6679 23.2087 38.557 23.1784 38.4303 23.1784C38.1769 23.1784 37.971 23.3299 37.8126 23.6027V25.512H37.4958ZM63.2503 25.512V21.5721H63.5513V23.3299C63.6463 23.2087 63.7889 23.1177 63.9473 23.0571C64.1215 22.9965 64.2799 22.9359 64.4541 22.9359C65.1669 22.9359 65.5153 23.3299 65.5153 24.0876V25.5423H65.2144V24.1482C65.2144 23.542 64.9293 23.239 64.3749 23.239C64.2165 23.239 64.0423 23.2693 63.8997 23.3602C63.7414 23.4208 63.6146 23.542 63.5354 23.633V25.5423H63.2503V25.512ZM82.0515 25.512V22.9662H82.3524V25.512H82.0515ZM35.8961 25.512V22.9662H36.197V25.512H35.8961ZM75.795 23.4814C75.6049 23.6633 75.5099 23.936 75.5099 24.2391C75.5099 24.5422 75.6049 24.7847 75.795 24.9968C75.985 25.1787 76.2385 25.2999 76.5236 25.2999C76.8245 25.2999 77.0621 25.209 77.2522 24.9968C77.4423 24.815 77.5373 24.5422 77.5373 24.2391C77.5373 23.936 77.4423 23.6936 77.2522 23.4814C77.0621 23.2996 76.8087 23.1784 76.5236 23.1784C76.2385 23.2087 76.0009 23.2996 75.795 23.4814ZM70.4413 23.4814C70.2513 23.6633 70.1562 23.936 70.1562 24.2391C70.1562 24.5422 70.2513 24.7847 70.4413 24.9968C70.6314 25.1787 70.8848 25.2999 71.1699 25.2999C71.4709 25.2999 71.7085 25.209 71.8985 24.9968C72.0886 24.815 72.1836 24.5422 72.1836 24.2391C72.1836 23.936 72.0886 23.6936 71.8985 23.4814C71.7085 23.2996 71.455 23.1784 71.1699 23.1784C70.8848 23.2087 70.6472 23.2996 70.4413 23.4814ZM79.2479 23.3602C79.1212 23.4814 79.0578 23.633 79.0578 23.8148C79.0578 23.9967 79.1212 24.1482 79.2479 24.2694C79.3746 24.3907 79.5489 24.4513 79.7548 24.4513C79.9607 24.4513 80.1349 24.3907 80.2616 24.2694C80.3883 24.1482 80.4517 23.9967 80.4517 23.8148C80.4517 23.633 80.3883 23.4814 80.2458 23.3602C80.1191 23.239 79.9448 23.1784 79.7389 23.1784C79.5489 23.1784 79.3905 23.239 79.2479 23.3602ZM58.0868 23.2087C57.8175 23.2087 57.5958 23.2996 57.4215 23.4511C57.2631 23.6027 57.1681 23.8148 57.1364 24.0876H58.9579C58.9579 23.8148 58.8787 23.6027 58.7203 23.4511C58.5778 23.2693 58.356 23.2087 58.0868 23.2087ZM84.7441 23.2087C84.4748 23.2087 84.2531 23.2996 84.0789 23.4511C83.9205 23.6027 83.8096 23.8148 83.7938 24.0876H85.6153C85.6153 23.8148 85.5361 23.6027 85.3777 23.4511C85.2193 23.2693 84.9975 23.2087 84.7441 23.2087ZM40.7112 23.2087C40.4419 23.2087 40.2202 23.2996 40.0459 23.4511C39.8875 23.6027 39.7925 23.8148 39.7608 24.0876H41.5823C41.5823 23.8148 41.5031 23.6027 41.3447 23.4511C41.2022 23.2693 40.9804 23.2087 40.7112 23.2087ZM45.8272 23.2087C45.558 23.2087 45.3362 23.2996 45.162 23.4511C45.0036 23.6027 44.9086 23.8148 44.8769 24.0876H46.6984C46.6984 23.8148 46.6192 23.6027 46.4608 23.4511C46.3024 23.2693 46.0965 23.2087 45.8272 23.2087ZM35.8327 21.9964C35.8327 21.9357 35.8485 21.9054 35.8961 21.8751C35.9436 21.8448 35.9911 21.8145 36.0386 21.8145C36.0861 21.8145 36.1337 21.8448 36.1653 21.8751C36.197 21.9054 36.2287 21.9661 36.2287 21.9964C36.2287 22.057 36.2128 22.1176 36.1653 22.1479C36.1337 22.1782 36.0861 22.2085 36.0228 22.2085C35.9594 22.2085 35.9119 22.1782 35.8802 22.1479C35.8644 22.0873 35.8327 22.057 35.8327 21.9964ZM82.0039 21.9964C82.0039 21.9357 82.0198 21.9054 82.0673 21.8751C82.1148 21.8448 82.1623 21.8145 82.2098 21.8145C82.2574 21.8145 82.3049 21.8448 82.3366 21.8751C82.3682 21.9054 82.3999 21.9661 82.3999 21.9964C82.3999 22.057 82.3841 22.1176 82.3366 22.1479C82.3049 22.1782 82.2574 22.2085 82.194 22.2085C82.1307 22.2085 82.0831 22.1782 82.0515 22.1479C82.0198 22.0873 82.0039 22.057 82.0039 21.9964Z" fill="white" />
    </svg>

    <symbol viewBox="0 0 46 53" id="doc-icon">
        <path d="M3.66048 0.161865H31.3019L45.953 14.7561V48.9611C45.953 50.7585 44.4957 52.2143 42.6998 52.2143H3.66048C1.86462 52.2143 0.407227 50.7585 0.407227 48.9611V3.41511C0.407227 1.61774 1.86478 0.161865 3.66048 0.161865Z" fill="#FFAE00" />
        <path d="M45.9059 14.8012H34.5666C32.7707 14.8012 31.3134 13.3438 31.3134 11.5479V0.19397L45.9059 14.8012Z" fill="#F59444" />
    </symbol>

    <symbol viewBox="0 0 46 53" id="doc-icon-2">
        <path d="M3.32027 0.365234H30.9617L45.6128 14.9595V49.1645C45.6128 50.9618 44.1554 52.4177 42.3596 52.4177H3.32027C1.52441 52.4177 0.0670166 50.9618 0.0670166 49.1645V3.61848C0.0670166 1.82111 1.52457 0.365234 3.32027 0.365234Z" fill="#2F5ED1" />
        <path d="M45.5657 15.0047H34.2264C32.4305 15.0047 30.9731 13.5473 30.9731 11.7514V0.397461L45.5657 15.0047Z" fill="#133A9B" />
    </symbol>

    <symbol viewBox="0 0 177 54" id="logo-footer">
        <path d="M5.43243 42.3713C11.5392 38.6813 18.7033 36.5666 26.3421 36.5666C33.981 36.5666 41.1451 38.6813 47.2519 42.3713C47.2519 42.3713 52.0423 52.0817 52.6681 53.3548C52.6897 53.3764 52.6897 53.4195 52.6681 53.4411C52.6465 53.4627 52.6249 53.4843 52.5818 53.4843H52.5602C52.5386 53.4843 52.5171 53.4843 52.4955 53.4627C45.8708 46.6438 36.592 42.4144 26.3421 42.4144C16.0923 42.4144 6.81346 46.6438 0.188813 53.4627C0.167235 53.4843 0.145656 53.4843 0.124077 53.4843C0.124077 53.4843 0.124077 53.4843 0.102499 53.4843C0.0593414 53.4843 0.0377626 53.4627 0.016184 53.4411C-0.00539466 53.4195 -0.00539466 53.3764 0.016184 53.3548C0.663544 52.0601 5.43243 42.3713 5.43243 42.3713ZM11.1076 30.8267C15.8765 29.1867 21.0122 28.302 26.3421 28.302C31.6721 28.302 36.8078 29.1867 41.5767 30.8267L44.8351 37.4298C39.2246 34.7972 32.9452 33.3514 26.3421 33.3514C19.7391 33.3514 13.4813 34.8187 7.84924 37.4298L11.1076 30.8267ZM15.8765 21.181C19.2643 20.5121 22.7601 20.1453 26.3421 20.1453C29.9242 20.1453 33.4199 20.5121 36.8078 21.181L39.613 26.8778C35.3836 25.7125 30.9168 25.0868 26.3206 25.0868C21.7243 25.0868 17.2575 25.7125 13.0281 26.8778L15.8765 21.181ZM20.1059 12.5711C22.1559 12.3769 24.249 12.269 26.3421 12.269C28.4353 12.269 30.5284 12.3769 32.5784 12.5711L35.0599 17.6205C32.2115 17.189 29.2984 16.9516 26.3421 16.9516C23.3859 16.9516 20.4727 17.189 17.6244 17.6205L20.1059 12.5711Z" fill="#ACB7D3" />
        <path fill-rule="evenodd" clip-rule="evenodd" d="M26.2126 0.184946C26.2342 0.141789 26.299 0.0986328 26.3421 0.0986328C26.4068 0.0986328 26.45 0.141789 26.4716 0.184946C27.2484 1.76019 31.0031 9.37745 31.0031 9.37745H21.6595C21.6811 9.37745 25.4358 1.76019 26.2126 0.184946Z" fill="#ACB7D3" />
        <path d="M90.1354 32.235L93.3972 30.7201C93.7139 31.8714 94.2839 32.7198 95.1072 33.2651C95.9306 33.8105 96.9756 34.174 98.274 34.174C99.4774 34.174 100.459 33.8105 101.187 33.1439C101.916 32.4774 102.264 31.5685 102.264 30.4172C102.264 28.9629 101.029 27.6298 98.5907 26.4785C98.2424 26.2967 97.989 26.1755 97.799 26.1149C95.0122 24.7818 93.1755 23.5093 92.2571 22.4186C91.3388 21.3279 90.8638 19.9948 90.8638 18.4194C90.8638 16.3592 91.5605 14.7231 92.9538 13.4506C94.3472 12.1781 96.1839 11.5116 98.4324 11.5116C100.301 11.5116 101.852 11.8751 103.088 12.6023C104.323 13.3294 105.209 14.3595 105.684 15.6926L102.486 17.3287C101.979 16.5409 101.441 15.935 100.839 15.5714C100.237 15.2079 99.5407 15.0261 98.7807 15.0261C97.6723 15.0261 96.8173 15.3291 96.1523 15.8744C95.4873 16.4198 95.1706 17.2075 95.1706 18.177C95.1706 19.6919 96.5956 21.0856 99.4457 22.4186C99.6674 22.5398 99.8257 22.6004 99.9524 22.661C102.454 23.8123 104.164 24.903 105.083 26.0543C106.001 27.145 106.476 28.5387 106.476 30.1748C106.476 32.538 105.716 34.477 104.228 35.8707C102.739 37.2644 100.681 37.9915 98.1474 37.9915C95.9939 37.9915 94.2522 37.5067 92.8588 36.5372C91.4655 35.5071 90.5787 34.0528 90.1354 32.235ZM82.4085 37.2644L79.5584 30.7807H69.583L66.6696 37.2644H62.3628L74.5549 11.0874L86.747 37.2644H82.4085ZM172.662 37.2644L169.811 30.7807H159.836L156.923 37.2644H152.616L164.808 11.0874L177 37.2644H172.662ZM137.035 25.9937V37.2644H133.204V12.0569H138.904C140.582 12.0569 141.881 12.1781 142.799 12.3599C143.717 12.6023 144.509 12.9659 145.174 13.4506C145.966 14.0566 146.567 14.8443 146.979 15.8138C147.391 16.7833 147.612 17.8134 147.612 18.9647C147.612 20.9644 147.137 22.5398 146.156 23.6911C145.174 24.8424 143.749 25.509 141.849 25.7514L150.526 37.2038H145.902L137.51 25.9331H137.035V25.9937ZM120.631 15.5714V37.2644H116.546V15.5108H109.864V12.0569H127.313V15.5108H120.631V15.5714ZM71.1031 27.3874H78.1333L75.5366 21.6309C75.3782 21.2673 75.2199 20.8432 75.0616 20.3584C74.9032 19.8737 74.7449 19.3283 74.5865 18.7829C74.4599 19.3283 74.3015 19.8737 74.1432 20.2978C73.9848 20.7826 73.8265 21.2067 73.6682 21.6309L71.1031 27.3874ZM161.325 27.3874H168.355L165.758 21.6309C165.6 21.2673 165.441 20.8432 165.283 20.3584C165.125 19.8737 164.966 19.3283 164.808 18.7829C164.681 19.3283 164.523 19.8737 164.365 20.2978C164.206 20.7826 164.048 21.2067 163.89 21.6309L161.325 27.3874ZM137.289 22.8428H138.017C140.17 22.8428 141.627 22.6004 142.324 22.0551C143.021 21.5703 143.401 20.6614 143.401 19.3889C143.401 17.9952 143.021 17.0257 142.261 16.4804C141.501 15.935 140.075 15.632 138.017 15.632H137.289V22.8428Z" fill="#ACB7D3" />
        <path d="M156.923 50.5347C156.923 50.1711 157.049 49.8075 157.334 49.5652C157.619 49.3228 157.999 49.141 158.474 49.0198C158.348 48.8986 158.316 48.7168 158.316 48.5351C158.316 48.3533 158.379 48.1715 158.506 48.0503C158.189 47.9291 157.904 47.6867 157.714 47.3838C157.524 47.0808 157.429 46.7778 157.429 46.4142C157.429 45.8689 157.619 45.4447 157.968 45.1417C158.348 44.7782 158.823 44.657 159.424 44.657C159.899 44.657 160.343 44.7782 160.691 45.0205L162.148 44.657V45.2023L161.134 45.4447C161.325 45.7477 161.451 46.0507 161.451 46.4142C161.451 46.899 161.261 47.3232 160.881 47.6867C160.501 48.0503 160.026 48.1715 159.424 48.1715C159.234 48.1715 159.044 48.1715 158.918 48.1109C158.854 48.2321 158.823 48.3533 158.823 48.4745C158.823 48.6562 158.886 48.7774 158.981 48.8986C159.203 48.8986 159.361 48.8986 159.456 48.8986C160.216 48.8986 160.849 49.0198 161.293 49.3228C161.768 49.6258 161.99 49.9893 161.99 50.5347C161.99 51.0194 161.768 51.4436 161.293 51.7466C160.818 52.0495 160.216 52.1707 159.456 52.1707C158.696 52.1707 158.063 52.0495 157.619 51.7466C157.176 51.4436 156.923 51.08 156.923 50.5347ZM157.524 50.5347C157.524 50.8377 157.714 51.1406 158.063 51.3224C158.411 51.5042 158.886 51.6254 159.488 51.6254C160.089 51.6254 160.564 51.5042 160.913 51.3224C161.261 51.1406 161.451 50.8982 161.451 50.5347C161.451 50.2317 161.261 49.9287 160.913 49.747C160.564 49.5652 160.089 49.444 159.488 49.444C158.886 49.444 158.443 49.5652 158.063 49.747C157.714 49.9287 157.524 50.2317 157.524 50.5347ZM151.096 49.141C150.589 48.6562 150.367 47.9897 150.367 47.2626C150.367 46.5354 150.621 45.8689 151.096 45.3841C151.603 44.8994 152.236 44.657 153.028 44.657C153.819 44.657 154.453 44.8994 154.959 45.3841C155.466 45.8689 155.719 46.5354 155.719 47.2626C155.719 47.9897 155.466 48.6562 154.959 49.141C154.453 49.6258 153.819 49.8681 153.028 49.8681C152.236 49.9287 151.603 49.6258 151.096 49.141ZM140.392 49.141C139.885 48.6562 139.664 47.9897 139.664 47.2626C139.664 46.5354 139.917 45.8689 140.392 45.3841C140.899 44.8994 141.532 44.657 142.324 44.657C143.116 44.657 143.749 44.8994 144.256 45.3841C144.762 45.8689 144.984 46.5354 144.984 47.2626C144.984 47.9897 144.731 48.6562 144.256 49.141C143.749 49.6258 143.116 49.8681 142.324 49.8681C141.532 49.9287 140.899 49.6258 140.392 49.141ZM118.003 48.7168L118.193 49.141C117.75 49.6258 117.116 49.8681 116.325 49.8681C115.533 49.8681 114.868 49.6258 114.361 49.141C113.855 48.6562 113.633 48.0503 113.633 47.202C113.633 46.4142 113.855 45.8083 114.33 45.3235C114.773 44.8388 115.406 44.5964 116.23 44.5964C116.895 44.5964 117.433 44.7782 117.876 45.2023C118.32 45.6265 118.541 46.1718 118.541 46.8384C118.541 47.0202 118.541 47.202 118.51 47.3232H114.33C114.361 47.9291 114.551 48.4139 114.931 48.7774C115.311 49.141 115.786 49.3228 116.42 49.3228C117.053 49.3228 117.591 49.141 118.003 48.7168ZM171.268 48.7168L171.458 49.141C171.015 49.6258 170.381 49.8681 169.59 49.8681C168.798 49.8681 168.133 49.6258 167.626 49.141C167.12 48.6562 166.898 48.0503 166.898 47.202C166.898 46.4142 167.12 45.8083 167.595 45.3235C168.038 44.8388 168.671 44.5964 169.495 44.5964C170.16 44.5964 170.698 44.7782 171.142 45.2023C171.585 45.6265 171.807 46.1718 171.807 46.8384C171.807 47.0202 171.807 47.202 171.775 47.3232H167.595C167.626 47.9291 167.816 48.4139 168.196 48.7774C168.576 49.141 169.051 49.3228 169.685 49.3228C170.318 49.3228 170.888 49.141 171.268 48.7168ZM93.4922 48.7168L93.6822 49.141C93.2388 49.6258 92.6055 49.8681 91.8138 49.8681C91.0221 49.8681 90.3571 49.6258 89.8504 49.141C89.3437 48.6562 89.0904 48.0503 89.0904 47.202C89.0904 46.4142 89.312 45.8083 89.7871 45.3235C90.2304 44.8388 90.8638 44.5964 91.6871 44.5964C92.3521 44.5964 92.8905 44.7782 93.3338 45.2023C93.7772 45.6265 93.9989 46.1718 93.9989 46.8384C93.9989 47.0202 93.9989 47.202 93.9672 47.3232H89.7871C89.8187 47.9291 90.0087 48.4139 90.3888 48.7774C90.7688 49.141 91.2438 49.3228 91.8771 49.3228C92.5421 49.3228 93.0805 49.141 93.4922 48.7168ZM83.2635 48.7168L83.4535 49.141C83.0102 49.6258 82.3768 49.8681 81.5851 49.8681C80.7934 49.8681 80.1284 49.6258 79.6217 49.141C79.115 48.6562 78.8933 48.0503 78.8933 47.202C78.8933 46.4142 79.115 45.8083 79.59 45.3235C80.0334 44.8388 80.6667 44.5964 81.4901 44.5964C82.1551 44.5964 82.6935 44.7782 83.1368 45.2023C83.5802 45.6265 83.8018 46.1718 83.8018 46.8384C83.8018 47.0202 83.8019 47.202 83.7702 47.3232H79.59C79.6217 47.9291 79.8117 48.4139 80.1917 48.7774C80.5717 49.141 81.0468 49.3228 81.6801 49.3228C82.3135 49.3228 82.8518 49.141 83.2635 48.7168ZM124.305 48.6562L124.59 49.0804C124.368 49.3228 124.115 49.5652 123.767 49.6864C123.418 49.8075 123.07 49.9287 122.69 49.9287C121.898 49.9287 121.265 49.6864 120.758 49.2016C120.251 48.7168 119.998 48.1109 119.998 47.2626C119.998 46.5354 120.251 45.8689 120.726 45.3841C121.201 44.8994 121.803 44.5964 122.532 44.5964C123.418 44.5964 124.052 44.7782 124.495 45.2023L124.21 45.6871C123.798 45.3235 123.26 45.1417 122.595 45.1417C122.056 45.1417 121.581 45.3235 121.201 45.7477C120.821 46.1719 120.6 46.6566 120.6 47.2626C120.6 47.8685 120.79 48.4139 121.201 48.7774C121.613 49.141 122.088 49.3228 122.722 49.3228C123.387 49.3228 123.925 49.141 124.305 48.6562ZM176.367 48.4745C176.367 48.2321 176.272 48.0503 176.082 47.9291C175.892 47.8079 175.67 47.6867 175.385 47.5655C175.1 47.5049 174.847 47.3838 174.562 47.2626C174.277 47.1414 174.055 47.0202 173.865 46.7778C173.675 46.5354 173.58 46.293 173.58 45.9295C173.58 45.5053 173.738 45.2023 174.023 44.96C174.308 44.7176 174.72 44.5964 175.195 44.5964C175.892 44.5964 176.43 44.7782 176.778 45.1417L176.525 45.5659C176.177 45.2629 175.733 45.0811 175.195 45.0811C174.878 45.0811 174.625 45.1417 174.467 45.3235C174.277 45.5053 174.182 45.6871 174.182 45.8689C174.182 46.1113 174.277 46.2931 174.467 46.4748C174.657 46.596 174.878 46.7172 175.163 46.8384C175.448 46.899 175.702 47.0202 175.987 47.1414C176.272 47.2626 176.493 47.3838 176.683 47.6261C176.873 47.8079 176.968 48.1109 176.968 48.4139C176.968 48.8986 176.778 49.2622 176.43 49.5046C176.082 49.747 175.638 49.8681 175.132 49.8681C174.783 49.8681 174.435 49.8075 174.087 49.6258C173.738 49.444 173.517 49.3228 173.39 49.141L173.707 48.7774C173.833 48.9592 174.055 49.0804 174.34 49.2016C174.625 49.3228 174.91 49.3834 175.163 49.3834C175.48 49.3834 175.733 49.3228 175.955 49.141C176.24 48.9592 176.367 48.7774 176.367 48.4745ZM103.848 48.4745C103.848 48.2321 103.753 48.0503 103.563 47.9291C103.373 47.8079 103.151 47.6867 102.866 47.5655C102.581 47.5049 102.327 47.3838 102.042 47.2626C101.757 47.1414 101.536 47.0202 101.346 46.7778C101.156 46.5354 101.061 46.293 101.061 45.9295C101.061 45.5053 101.219 45.2023 101.504 44.96C101.789 44.7176 102.201 44.5964 102.676 44.5964C103.373 44.5964 103.911 44.7782 104.259 45.1417L104.006 45.5659C103.658 45.2629 103.214 45.0811 102.676 45.0811C102.359 45.0811 102.106 45.1417 101.916 45.3235C101.726 45.5053 101.631 45.6871 101.631 45.8689C101.631 46.1113 101.726 46.2931 101.916 46.4748C102.106 46.596 102.327 46.7172 102.612 46.8384C102.898 46.899 103.151 47.0202 103.436 47.1414C103.721 47.2626 103.943 47.3838 104.133 47.6261C104.323 47.8079 104.418 48.1109 104.418 48.4139C104.418 48.8986 104.228 49.2622 103.879 49.5046C103.531 49.747 103.088 49.8681 102.581 49.8681C102.232 49.8681 101.884 49.8075 101.536 49.6258C101.187 49.5046 100.966 49.3228 100.839 49.141L101.156 48.7774C101.282 48.9592 101.504 49.0804 101.789 49.2016C102.074 49.3228 102.359 49.3834 102.612 49.3834C102.929 49.3834 103.183 49.3228 103.404 49.141C103.721 48.9592 103.848 48.7774 103.848 48.4745ZM98.559 48.4745C98.559 48.2321 98.464 48.0503 98.274 47.9291C98.084 47.8079 97.8623 47.6867 97.5773 47.5655C97.2923 47.5049 97.039 47.3838 96.754 47.2626C96.469 47.1414 96.2473 47.0202 96.0573 46.7778C95.8673 46.5354 95.7723 46.293 95.7723 45.9295C95.7723 45.5053 95.9306 45.2023 96.2156 44.96C96.5006 44.7176 96.9123 44.5964 97.3873 44.5964C98.084 44.5964 98.6224 44.7782 98.9707 45.1417L98.7174 45.5659C98.369 45.2629 97.9257 45.0811 97.3873 45.0811C97.0706 45.0811 96.8173 45.1417 96.6273 45.3235C96.4373 45.5053 96.3423 45.6871 96.3423 45.8689C96.3423 46.1113 96.4373 46.2931 96.6273 46.4748C96.8173 46.596 97.039 46.7172 97.324 46.8384C97.609 46.899 97.8623 47.0202 98.1474 47.1414C98.4324 47.2626 98.654 47.3838 98.844 47.6261C99.034 47.8079 99.129 48.1109 99.129 48.4139C99.129 48.8986 98.939 49.2622 98.5907 49.5046C98.2423 49.747 97.799 49.8681 97.2923 49.8681C96.944 49.8681 96.5956 49.8075 96.2473 49.6258C95.8989 49.5046 95.6773 49.3228 95.5506 49.141L95.8673 48.7774C95.9939 48.9592 96.2156 49.0804 96.5006 49.2016C96.7856 49.3228 97.0706 49.3834 97.324 49.3834C97.6407 49.3834 97.894 49.3228 98.1157 49.141C98.464 48.9592 98.559 48.7774 98.559 48.4745ZM69.868 44.7176L68.2213 49.8681H67.7463L66.3529 46.1719C66.2579 45.8689 66.1629 45.6871 66.1312 45.5053C66.0679 45.7477 65.9729 45.9901 65.9096 46.1719L64.5479 49.8076H64.0728L62.3628 44.657H62.9961L64.1362 48.2321C64.1678 48.2927 64.1995 48.4139 64.2312 48.5957C64.2628 48.7774 64.3262 48.8986 64.3579 48.9592C64.4845 48.5956 64.5479 48.3533 64.6112 48.2321L65.9096 44.657H66.3846L67.7146 48.1715L67.968 48.9592C67.9996 48.838 68.0313 48.7168 68.0946 48.4745L69.2664 44.5964H69.868V44.7176ZM85.7336 48.4745V41.8696H86.3353V48.1715C86.3353 48.5351 86.3986 48.838 86.4936 49.0198C86.6203 49.2016 86.7786 49.3228 87.0636 49.3228C87.317 49.3228 87.5386 49.2622 87.7603 49.0804L87.9187 49.5652C87.6336 49.8075 87.2536 49.9287 86.842 49.9287C86.0819 49.8681 85.7336 49.3834 85.7336 48.4745ZM146.979 48.4745V41.8696H147.581V48.1715C147.581 48.5351 147.644 48.838 147.739 49.0198C147.866 49.2016 148.024 49.3228 148.309 49.3228C148.562 49.3228 148.784 49.2622 149.006 49.0804L149.164 49.5652C148.879 49.8075 148.499 49.9287 148.087 49.9287C147.327 49.8681 146.979 49.3834 146.979 48.4745ZM109.579 47.8685V43.3239H110.181V44.7176H112.208V45.2629H110.181V47.7473C110.181 48.7774 110.561 49.2622 111.321 49.2622C111.606 49.2622 111.891 49.2016 112.144 49.0198L112.334 49.5046C112.049 49.747 111.669 49.8681 111.194 49.8681C110.656 49.8681 110.244 49.6864 109.991 49.3834C109.738 49.0804 109.579 48.5351 109.579 47.8685ZM133.235 49.8076V44.7176H133.837V45.4447C134.027 45.2023 134.312 45.0206 134.629 44.8994C134.945 44.7782 135.294 44.657 135.642 44.657C136.339 44.657 136.877 44.8388 137.225 45.2023C137.574 45.5659 137.764 46.1113 137.764 46.899V49.8076H137.162V47.0202C137.162 45.8083 136.592 45.2023 135.484 45.2023C135.167 45.2023 134.819 45.2629 134.534 45.4447C134.217 45.5659 133.995 45.8083 133.805 45.9901V49.8076H133.235ZM74.9666 49.8076V44.7176H75.5682V45.3841C75.9166 44.8994 76.3599 44.5964 76.93 44.5964C77.2783 44.5964 77.5316 44.657 77.7217 44.7782L77.5316 45.3235C77.31 45.2023 77.0883 45.1417 76.8349 45.1417C76.3283 45.1417 75.9166 45.4447 75.5999 45.9901V49.8076H74.9666ZM126.458 49.8076V41.9302H127.06V45.4447C127.25 45.2023 127.535 45.0206 127.852 44.8994C128.2 44.7782 128.517 44.657 128.865 44.657C130.29 44.657 130.987 45.4447 130.987 46.9596V49.8681H130.385V47.0808C130.385 45.8689 129.815 45.2629 128.707 45.2629C128.39 45.2629 128.042 45.3235 127.757 45.5053C127.44 45.6265 127.187 45.8689 127.028 46.0507V49.8681H126.458V49.8076ZM164.048 49.8076V44.7176H164.65V49.8076H164.048ZM71.7681 49.8076V44.7176H72.3698V49.8076H71.7681ZM151.539 45.7477C151.159 46.1113 150.969 46.6566 150.969 47.2626C150.969 47.8685 151.159 48.3533 151.539 48.7774C151.919 49.141 152.426 49.3834 152.996 49.3834C153.598 49.3834 154.073 49.2016 154.453 48.7774C154.833 48.4139 155.023 47.8685 155.023 47.2626C155.023 46.6566 154.833 46.1719 154.453 45.7477C154.073 45.3841 153.566 45.1417 152.996 45.1417C152.426 45.2023 151.951 45.3841 151.539 45.7477ZM140.835 45.7477C140.455 46.1113 140.265 46.6566 140.265 47.2626C140.265 47.8685 140.455 48.3533 140.835 48.7774C141.215 49.141 141.722 49.3834 142.292 49.3834C142.894 49.3834 143.369 49.2016 143.749 48.7774C144.129 48.4139 144.319 47.8685 144.319 47.2626C144.319 46.6566 144.129 46.1719 143.749 45.7477C143.369 45.3841 142.862 45.1417 142.292 45.1417C141.722 45.2023 141.247 45.3841 140.835 45.7477ZM158.443 45.5053C158.189 45.7477 158.063 46.0507 158.063 46.4142C158.063 46.7778 158.189 47.0808 158.443 47.3232C158.696 47.5655 159.044 47.6867 159.456 47.6867C159.868 47.6867 160.216 47.5655 160.469 47.3232C160.723 47.0808 160.85 46.7778 160.85 46.4142C160.85 46.0507 160.723 45.7477 160.438 45.5053C160.184 45.2629 159.836 45.1417 159.424 45.1417C159.044 45.1417 158.728 45.2629 158.443 45.5053ZM116.135 45.2023C115.596 45.2023 115.153 45.3841 114.805 45.6871C114.488 45.9901 114.298 46.4142 114.235 46.9596H117.876C117.876 46.4142 117.718 45.9901 117.401 45.6871C117.116 45.3235 116.673 45.2023 116.135 45.2023ZM169.431 45.2023C168.893 45.2023 168.45 45.3841 168.101 45.6871C167.785 45.9901 167.563 46.4142 167.531 46.9596H171.173C171.173 46.4142 171.015 45.9901 170.698 45.6871C170.381 45.3235 169.938 45.2023 169.431 45.2023ZM81.3951 45.2023C80.8568 45.2023 80.4134 45.3841 80.0651 45.6871C79.7484 45.9901 79.5584 46.4142 79.495 46.9596H83.1368C83.1368 46.4142 82.9785 45.9901 82.6618 45.6871C82.3768 45.3235 81.9335 45.2023 81.3951 45.2023ZM91.6238 45.2023C91.0854 45.2023 90.6421 45.3841 90.2937 45.6871C89.9771 45.9901 89.7871 46.4142 89.7237 46.9596H93.3655C93.3655 46.4142 93.2072 45.9901 92.8905 45.6871C92.5738 45.3235 92.1621 45.2023 91.6238 45.2023ZM71.6414 42.7786C71.6414 42.6574 71.6731 42.5968 71.7681 42.5362C71.8631 42.4756 71.9581 42.415 72.0531 42.415C72.1481 42.415 72.2431 42.4756 72.3065 42.5362C72.3698 42.5968 72.4331 42.718 72.4331 42.7786C72.4331 42.8997 72.4015 43.0209 72.3065 43.0815C72.2431 43.1421 72.1481 43.2027 72.0215 43.2027C71.8948 43.2027 71.7998 43.1421 71.7364 43.0815C71.7048 42.9603 71.6414 42.8997 71.6414 42.7786ZM163.953 42.7786C163.953 42.6574 163.985 42.5968 164.08 42.5362C164.175 42.4756 164.27 42.415 164.365 42.415C164.46 42.415 164.555 42.4756 164.618 42.5362C164.681 42.5968 164.745 42.718 164.745 42.7786C164.745 42.8997 164.713 43.0209 164.618 43.0815C164.555 43.1421 164.46 43.2027 164.333 43.2027C164.206 43.2027 164.111 43.1421 164.048 43.0815C163.985 42.9603 163.953 42.8997 163.953 42.7786Z" fill="#ACB7D3" />
    </symbol>

    <symbol viewBox="0 0 24 24" id="window-close">
        <path d="M23.9989 2.86244L21.6672 0.591553L12.4233 9.59458L3.17931 0.591553L0.847656 2.86244L10.0916 11.8655L0.847656 20.8685L3.17931 23.1394L12.4233 14.1364L21.6672 23.1394L23.9989 20.8685L14.7549 11.8655L23.9989 2.86244Z" />
    </symbol>

    <symbol viewBox="0 0 108 108" id="window-success">
        <path d="M77.8705 36.8654C79.5185 38.5134 79.5185 41.1847 77.8705 42.8318L49.5687 71.1346C47.9207 72.7817 45.2502 72.7817 43.6023 71.1346L30.1295 57.6609C28.4815 56.0138 28.4815 53.3425 30.1295 51.6953C31.7766 50.0474 34.4479 50.0474 36.095 51.6953L46.5851 62.1854L71.9041 36.8654C73.5521 35.2183 76.2234 35.2183 77.8705 36.8654ZM108 54C108 83.8485 83.8444 108 54 108C24.1515 108 0 83.8444 0 54C0 24.1515 24.1556 0 54 0C83.8485 0 108 24.1556 108 54ZM99.5625 54C99.5625 28.8152 79.1815 8.4375 54 8.4375C28.8152 8.4375 8.4375 28.8185 8.4375 54C8.4375 79.1848 28.8185 99.5625 54 99.5625C79.1848 99.5625 99.5625 79.1815 99.5625 54Z" fill="white" />
    </symbol>

</svg>